<svg xmlns="http://www.w3.org/2000/svg" viewBox="0 0 83.76 88.01"><g><g fill="#00baab" fill-rule="evenodd"><path d="M11.41 25.56a38.28 38.28 0 0 0-4.7 5.3A33.43 33.43 0 0 0 .79 58.12a24.53 24.53 0 0 0 1.92 3.12 25.07 25.07 0 0 0 7.94 7.08 28.6 28.6 0 0 0 10.28 3.44 29.88 29.88 0 0 0 10.71-.43c.86-.19 1.73-.43 2.54-.67s1.73-.54 2.58-.85a53 53 0 0 0 5-2.06 44.52 44.52 0 0 0 16-13q.73-.94 1.39-1.92a53.75 53.75 0 0 0-15-15.9 62.57 62.57 0 0 0-21.65-9.82 59 59 0 0 0-11.14-1.58zM61.61 9.18a46.62 46.62 0 0 0-42.75-.77q1.57.4 3.12.88a72.09 72.09 0 0 1 24.39 12.9 62.91 62.91 0 0 1 9.31 9.32 57.36 57.36 0 0 1 4.12 5.82 38.22 38.22 0 0 0 3.35-10.65 35.8 35.8 0 0 0 .25-9.44 36.25 36.25 0 0 0-.8-4.63q-.27-1.15-.62-2.27c-.11-.38-.24-.75-.36-1.12zM75 29.37a44.21 44.21 0 0 1-1.24 9 46.26 46.26 0 0 1-7.81 16.55c.44 1 .83 2 1.19 3.07s.62 1.88.86 2.82v.13l.68-.8c.94-1.13 1.83-2.29 2.64-3.47a33 33 0 0 0 5.78-14.52A21.7 21.7 0 0 0 75 29.37zM61.53 83.68a40.24 40.24 0 0 0 15.52-12.6 33.36 33.36 0 0 0 5.35-29.44 36.46 36.46 0 0 1-2.82 8.12 47.49 47.49 0 0 1-4.91 8c-1 1.28-2 2.53-3.12 3.74-.56.6-1.13 1.2-1.73 1.78-.39.38-.79.75-1.2 1.1a23.46 23.46 0 0 1-1.3 10.57 24.29 24.29 0 0 1-5.79 8.76zM64.15 64.79q-.1-.47-.23-.94c-.22-.83-.49-1.68-.77-2.48s-.53-1.44-.82-2.15a50.85 50.85 0 0 1-8 6.92 56.05 56.05 0 0 1-10.39 5.68l-1 .41a24.84 24.84 0 0 0 6.56-.39 31.44 31.44 0 0 0 8.81-3.13 32.6 32.6 0 0 0 5.85-3.93z"></path><path d="M19.15 82.08a46.59 46.59 0 0 0 38.39 3.25 21.47 21.47 0 0 0 2.2-2.25 20.57 20.57 0 0 0 4.46-9.13 21.4 21.4 0 0 0 .36-6.54 36.42 36.42 0 0 1-5.61 3 31.69 31.69 0 0 1-17.22 2.32q-1.69.63-3.42 1.13c-1 .28-1.92.54-2.89.76a28.93 28.93 0 0 1-3.05.52 33.44 33.44 0 0 1-12.08-.77 31 31 0 0 1-18.2-12.78q-.36-.55-.69-1.11C4 69.07 10 76.87 19.15 82.08zM79.88 16.37C76 7.31 67 1.28 56.81 0q.67.81 1.29 1.65a40 40 0 0 1 7.22 16.17A36.71 36.71 0 0 1 66 26.4a35.61 35.61 0 0 1-.52 4.73 32.78 32.78 0 0 0 6.92-4.59 29 29 0 0 0 4.6-5.08 27.35 27.35 0 0 0 1.77-2.84q.4-.73.74-1.48c.12-.25.23-.5.33-.75zM18.07 9.5C8.73 12.53 2.47 19.78 1.1 28q.84-.53 1.7-1a47.43 47.43 0 0 1 16.67-5.7 48.06 48.06 0 0 1 8.83-.48 46.41 46.41 0 0 1 4.86.45 26.85 26.85 0 0 0-4.68-5.59 28.33 28.33 0 0 0-5.2-3.76 30.07 30.07 0 0 0-2.91-1.44q-.75-.32-1.51-.61l-.77-.27z"></path></g></g></svg>