<svg data-v-73fdaaa2="" version="1.0" xmlns="http://www.w3.org/2000/svg" xmlns:xlink="http://www.w3.org/1999/xlink" width="100%" height="100%" viewBox="0 0 340.000000 250.000000" preserveAspectRatio="xMidYMid meet" color-interpolation-filters="sRGB" class="el-tooltip" style="margin: auto;">
<rect data-v-73fdaaa2="" x="0" y="0" width="100%" height="100%" fill="#fff" fill-opacity="1"></rect> 
 <g data-v-73fdaaa2="" fill="#00baab" class="icon-svg-group iconsvg" transform="translate(79.74369812011719,94.99481391906738)"><g class="iconsvg-imagesvg" transform="translate(0,0)"><rect fill="#00baab" fill-opacity="0" stroke-width="2" x="0" y="0" width="57.102601977048" height="60"></rect> <svg x="0" y="0" width="57.102601977048" height="60" class="imagesvg-svg"><svg xmlns="http://www.w3.org/2000/svg" viewBox="0 0 83.76 88.01"><g><g fill="#00baab" fill-rule="evenodd"><path d="M11.41 25.56a38.28 38.28 0 0 0-4.7 5.3A33.43 33.43 0 0 0 .79 58.12a24.53 24.53 0 0 0 1.92 3.12 25.07 25.07 0 0 0 7.94 7.08 28.6 28.6 0 0 0 10.28 3.44 29.88 29.88 0 0 0 10.71-.43c.86-.19 1.73-.43 2.54-.67s1.73-.54 2.58-.85a53 53 0 0 0 5-2.06 44.52 44.52 0 0 0 16-13q.73-.94 1.39-1.92a53.75 53.75 0 0 0-15-15.9 62.57 62.57 0 0 0-21.65-9.82 59 59 0 0 0-11.14-1.58zM61.61 9.18a46.62 46.62 0 0 0-42.75-.77q1.57.4 3.12.88a72.09 72.09 0 0 1 24.39 12.9 62.91 62.91 0 0 1 9.31 9.32 57.36 57.36 0 0 1 4.12 5.82 38.22 38.22 0 0 0 3.35-10.65 35.8 35.8 0 0 0 .25-9.44 36.25 36.25 0 0 0-.8-4.63q-.27-1.15-.62-2.27c-.11-.38-.24-.75-.36-1.12zM75 29.37a44.21 44.21 0 0 1-1.24 9 46.26 46.26 0 0 1-7.81 16.55c.44 1 .83 2 1.19 3.07s.62 1.88.86 2.82v.13l.68-.8c.94-1.13 1.83-2.29 2.64-3.47a33 33 0 0 0 5.78-14.52A21.7 21.7 0 0 0 75 29.37zM61.53 83.68a40.24 40.24 0 0 0 15.52-12.6 33.36 33.36 0 0 0 5.35-29.44 36.46 36.46 0 0 1-2.82 8.12 47.49 47.49 0 0 1-4.91 8c-1 1.28-2 2.53-3.12 3.74-.56.6-1.13 1.2-1.73 1.78-.39.38-.79.75-1.2 1.1a23.46 23.46 0 0 1-1.3 10.57 24.29 24.29 0 0 1-5.79 8.76zM64.15 64.79q-.1-.47-.23-.94c-.22-.83-.49-1.68-.77-2.48s-.53-1.44-.82-2.15a50.85 50.85 0 0 1-8 6.92 56.05 56.05 0 0 1-10.39 5.68l-1 .41a24.84 24.84 0 0 0 6.56-.39 31.44 31.44 0 0 0 8.81-3.13 32.6 32.6 0 0 0 5.85-3.93z"></path><path d="M19.15 82.08a46.59 46.59 0 0 0 38.39 3.25 21.47 21.47 0 0 0 2.2-2.25 20.57 20.57 0 0 0 4.46-9.13 21.4 21.4 0 0 0 .36-6.54 36.42 36.42 0 0 1-5.61 3 31.69 31.69 0 0 1-17.22 2.32q-1.69.63-3.42 1.13c-1 .28-1.92.54-2.89.76a28.93 28.93 0 0 1-3.05.52 33.44 33.44 0 0 1-12.08-.77 31 31 0 0 1-18.2-12.78q-.36-.55-.69-1.11C4 69.07 10 76.87 19.15 82.08zM79.88 16.37C76 7.31 67 1.28 56.81 0q.67.81 1.29 1.65a40 40 0 0 1 7.22 16.17A36.71 36.71 0 0 1 66 26.4a35.61 35.61 0 0 1-.52 4.73 32.78 32.78 0 0 0 6.92-4.59 29 29 0 0 0 4.6-5.08 27.35 27.35 0 0 0 1.77-2.84q.4-.73.74-1.48c.12-.25.23-.5.33-.75zM18.07 9.5C8.73 12.53 2.47 19.78 1.1 28q.84-.53 1.7-1a47.43 47.43 0 0 1 16.67-5.7 48.06 48.06 0 0 1 8.83-.48 46.41 46.41 0 0 1 4.86.45 26.85 26.85 0 0 0-4.68-5.59 28.33 28.33 0 0 0-5.2-3.76 30.07 30.07 0 0 0-2.91-1.44q-.75-.32-1.51-.61l-.77-.27z"></path></g></g></svg></svg> <!----></g> <g transform="translate(64.10260009765625,7.734561920166016)"><g class="tp-name iconsvg-namesvg" transform="translate(0,0)"><g><path transform="translate(-1.25,28.59375)" d="M14.22-16.09L10.47-11.88L16.41-2.66L16.41-2.66Q16.88-2.03 17.27-1.80L17.27-1.80L17.27-1.80Q17.66-1.56 18.13-1.56L18.13-1.56L18.75-1.56L18.75-0.63L12.34-0.63L12.34-1.56L12.81-1.56L12.81-1.56Q13.59-1.56 13.91-1.80L13.91-1.80L13.91-1.80Q14.22-2.03 13.75-2.66L13.75-2.66L8.91-10.31L5.78-7.03L5.78-2.81L5.78-2.81Q5.78-2.19 6.17-1.88L6.17-1.88L6.17-1.88Q6.56-1.56 7.19-1.56L7.19-1.56L7.97-1.56L7.97-0.63L1.41-0.63L1.41-1.56L2.19-1.56L2.19-1.56Q2.97-1.56 3.28-1.88L3.28-1.88L3.28-1.88Q3.59-2.19 3.59-2.81L3.59-2.81L3.59-25.16L3.59-25.16Q3.59-25.78 3.28-26.09L3.28-26.09L3.28-26.09Q2.97-26.41 2.19-26.41L2.19-26.41L1.25-26.41L1.25-27.34L2.66-27.34L2.66-27.34Q3.59-27.34 4.30-27.66L4.30-27.66L4.30-27.66Q5-27.97 5.47-28.59L5.47-28.59L5.78-28.59L5.78-8.75L12.34-15.78L12.34-15.78Q12.66-16.41 12.58-16.80L12.58-16.80L12.58-16.80Q12.50-17.19 11.88-17.19L11.88-17.19L10.94-17.19L10.94-18.13L17.50-18.13L17.50-17.19L16.72-17.19L16.72-17.19Q16.25-17.19 15.55-16.95L15.55-16.95L15.55-16.95Q14.84-16.72 14.22-16.09L14.22-16.09ZM27.81-0.63L21.25-0.63L21.25-1.56L22.03-1.56L22.03-1.56Q22.81-1.56 23.13-1.88L23.13-1.88L23.13-1.88Q23.44-2.19 23.44-2.81L23.44-2.81L23.44-16.25L23.44-16.25Q23.44-16.72 23.28-16.95L23.28-16.95L23.28-16.95Q23.13-17.19 22.66-17.19L22.66-17.19L21.41-17.19L21.41-18.13L22.50-18.13L22.50-18.13Q23.28-18.13 23.98-18.28L23.98-18.28L23.98-18.28Q24.69-18.44 25.31-18.91L25.31-18.91L25.63-18.91L25.63-15.31L25.63-15.31Q27.03-16.88 28.44-17.66L28.44-17.66L28.44-17.66Q29.84-18.44 31.41-18.44L31.41-18.44L31.41-18.44Q34.06-18.44 35.31-17.03L35.31-17.03L35.31-17.03Q36.56-15.63 36.56-12.81L36.56-12.81L36.56-2.81L36.56-2.81Q36.56-2.19 36.95-1.88L36.95-1.88L36.95-1.88Q37.34-1.56 37.97-1.56L37.97-1.56L38.75-1.56L38.75-0.63L32.19-0.63L32.19-1.56L32.97-1.56L32.97-1.56Q33.75-1.56 34.06-1.88L34.06-1.88L34.06-1.88Q34.38-2.19 34.38-2.81L34.38-2.81L34.38-13.28L34.38-13.28Q34.38-15.16 33.59-16.17L33.59-16.17L33.59-16.17Q32.81-17.19 31.25-17.19L31.25-17.19L31.25-17.19Q29.84-17.19 28.36-16.25L28.36-16.25L28.36-16.25Q26.88-15.31 25.63-13.59L25.63-13.59L25.63-2.81L25.63-2.81Q25.63-2.19 26.02-1.88L26.02-1.88L26.02-1.88Q26.41-1.56 27.03-1.56L27.03-1.56L27.81-1.56L27.81-0.63ZM58.13-9.38L58.13-9.38L58.13-9.38Q58.13-5.47 55.78-2.89L55.78-2.89L55.78-2.89Q53.44-0.31 50-0.31L50-0.31L50-0.31Q46.41-0.31 44.14-2.97L44.14-2.97L44.14-2.97Q41.88-5.63 41.88-9.38L41.88-9.38L41.88-9.38Q41.88-12.81 44.14-15.63L44.14-15.63L44.14-15.63Q46.41-18.44 50-18.44L50-18.44L50-18.44Q53.75-18.44 55.94-15.63L55.94-15.63L55.94-15.63Q58.13-12.81 58.13-9.38ZM44.38-9.22L44.38-9.22L44.38-9.22Q44.38-5.16 46.02-3.20L46.02-3.20L46.02-3.20Q47.66-1.25 50-1.25L50-1.25L50-1.25Q52.66-1.25 54.14-3.36L54.14-3.36L54.14-3.36Q55.63-5.47 55.63-9.22L55.63-9.22L55.63-9.22Q55.63-13.28 53.98-15.39L53.98-15.39L53.98-15.39Q52.34-17.50 50-17.50L50-17.50L50-17.50Q47.81-17.50 46.09-15.39L46.09-15.39L46.09-15.39Q44.38-13.28 44.38-9.22ZM74.53-17.19L74.53-18.13L79.84-18.13L79.84-17.19L79.22-17.19L79.22-17.19Q78.59-17.19 78.13-16.72L78.13-16.72L78.13-16.72Q77.66-16.25 77.34-15.16L77.34-15.16L73.59-0.47L72.66-0.47L69.84-12.34L66.88-0.47L65.94-0.47L62.34-14.84L62.34-14.84Q62.19-15.94 61.72-16.56L61.72-16.56L61.72-16.56Q61.25-17.19 60.78-17.19L60.78-17.19L60.16-17.19L60.16-18.13L65.78-18.13L65.78-17.19L65.16-17.19L65.16-17.19Q64.53-17.19 64.38-16.64L64.38-16.64L64.38-16.64Q64.22-16.09 64.38-15.16L64.38-15.16L66.72-5L67.03-5L69.38-14.38L69.38-14.38Q69.22-15.78 68.75-16.48L68.75-16.48L68.75-16.48Q68.28-17.19 67.66-17.19L67.66-17.19L67.19-17.19L67.19-18.13L72.50-18.13L72.50-17.19L72.03-17.19L72.03-17.19Q71.41-17.19 71.25-16.64L71.25-16.64L71.25-16.64Q71.09-16.09 71.25-15.16L71.25-15.16L73.59-5L73.75-5L76.41-15.94L76.41-15.94Q76.56-16.56 76.25-16.88L76.25-16.88L76.25-16.88Q75.94-17.19 75.31-17.19L75.31-17.19L74.53-17.19ZM80.63-18.13L81.09-18.13L81.09-18.13Q81.88-18.13 82.66-18.28L82.66-18.28L82.66-18.28Q83.44-18.44 83.91-18.75L83.91-18.75L84.22-18.75L84.22-16.09L84.22-16.09Q85-17.34 85.94-17.89L85.94-17.89L85.94-17.89Q86.88-18.44 87.97-18.44L87.97-18.44L87.97-18.44Q89.38-18.44 90.16-17.89L90.16-17.89L90.16-17.89Q90.94-17.34 91.09-16.09L91.09-16.09L91.09-16.09Q91.88-17.34 92.89-17.89L92.89-17.89L92.89-17.89Q93.91-18.44 95-18.44L95-18.44L95-18.44Q96.88-18.44 97.58-17.34L97.58-17.34L97.58-17.34Q98.28-16.25 98.28-14.53L98.28-14.53L98.28-2.66L98.28-2.66Q98.28-2.03 98.59-1.80L98.59-1.80L98.59-1.80Q98.91-1.56 99.53-1.56L99.53-1.56L99.84-1.56L99.84-0.63L94.53-0.63L94.53-1.56L94.84-1.56L94.84-1.56Q95.47-1.56 95.78-1.80L95.78-1.80L95.78-1.80Q96.09-2.03 96.09-2.66L96.09-2.66L96.09-14.38L96.09-14.38Q96.09-16.09 95.70-16.64L95.70-16.64L95.70-16.64Q95.31-17.19 94.53-17.19L94.53-17.19L94.53-17.19Q93.44-17.19 92.58-16.41L92.58-16.41L92.58-16.41Q91.72-15.63 91.25-14.22L91.25-14.22L91.25-2.66L91.25-2.66Q91.25-2.03 91.56-1.80L91.56-1.80L91.56-1.80Q91.88-1.56 92.50-1.56L92.50-1.56L92.81-1.56L92.81-0.63L87.50-0.63L87.50-1.56L87.81-1.56L87.81-1.56Q88.44-1.56 88.75-1.80L88.75-1.80L88.75-1.80Q89.06-2.03 89.06-2.66L89.06-2.66L89.06-14.38L89.06-14.38Q89.06-15.78 88.75-16.48L88.75-16.48L88.75-16.48Q88.44-17.19 87.50-17.19L87.50-17.19L87.50-17.19Q86.41-17.19 85.55-16.41L85.55-16.41L85.55-16.41Q84.69-15.63 84.22-14.06L84.22-14.06L84.22-2.66L84.22-2.66Q84.22-2.03 84.53-1.80L84.53-1.80L84.53-1.80Q84.84-1.56 85.47-1.56L85.47-1.56L85.78-1.56L85.78-0.63L80.47-0.63L80.47-1.56L80.78-1.56L80.78-1.56Q81.41-1.56 81.72-1.80L81.72-1.80L81.72-1.80Q82.03-2.03 82.03-2.66L82.03-2.66L82.03-16.25L82.03-16.25Q82.03-16.72 81.88-16.95L81.88-16.95L81.88-16.95Q81.72-17.19 81.25-17.19L81.25-17.19L80.63-17.19L80.63-18.13ZM105-10.31L115-10.31L115-10.31Q115.16-13.75 113.83-15.55L113.83-15.55L113.83-15.55Q112.50-17.34 110.31-17.34L110.31-17.34L110.31-17.34Q107.97-17.34 106.48-15.47L106.48-15.47L106.48-15.47Q105-13.59 105-10.31L105-10.31ZM117.66-9.38L105-9.38L105-9.38Q105-5.16 106.64-3.36L106.64-3.36L106.64-3.36Q108.28-1.56 110.94-1.56L110.94-1.56L110.94-1.56Q112.97-1.56 114.38-2.73L114.38-2.73L114.38-2.73Q115.78-3.91 116.41-5.63L116.41-5.63L117.19-5.31L117.19-5.31Q116.72-3.59 115.08-1.95L115.08-1.95L115.08-1.95Q113.44-0.31 110.63-0.31L110.63-0.31L110.63-0.31Q107.03-0.31 104.77-2.66L104.77-2.66L104.77-2.66Q102.50-5 102.50-9.38L102.50-9.38L102.50-9.38Q102.50-13.28 104.77-15.86L104.77-15.86L104.77-15.86Q107.03-18.44 110.31-18.44L110.31-18.44L110.31-18.44Q113.28-18.44 115.47-16.41L115.47-16.41L115.47-16.41Q117.66-14.38 117.66-9.38L117.66-9.38Z"></path></g> <!----> <!----> <!----> <!----> <!----> <!----> <!----></g> <g class="tp-slogan iconsvg-slogansvg" fill="#333" transform="translate(0.001049041748046875,35.59250068664551)"><!----> <rect x="0" height="1" y="3.9750003814697266" width="8.308891296386719"></rect> <!----> <g transform="translate(11.308891296386719,0)"><path transform="translate(-0.56098790322581,8.8125)" d="M7.31-3.61L4.69-3.61L4.69-4.59L8.44-4.59L8.44 0L7.69 0L7.41-1.08L7.41-1.08Q6.42 0.09 4.59 0.14L4.59 0.14L4.59 0.14Q2.86 0.14 1.92-0.75L1.92-0.75L1.92-0.75Q0.52-2.06 0.56-4.36L0.56-4.36L0.56-4.36Q0.89-8.63 4.64-8.81L4.64-8.81L4.64-8.81Q7.83-8.63 8.30-6L8.30-6L7.17-6L7.17-6Q6.70-7.78 4.59-7.83L4.59-7.83L4.59-7.83Q1.92-7.64 1.78-4.31L1.78-4.31L1.78-4.31Q1.78-0.75 4.64-0.75L4.64-0.75L4.64-0.75Q5.67-0.75 6.42-1.31L6.42-1.31L6.42-1.31Q7.36-2.06 7.31-3.61L7.31-3.61ZM11.53-1.03L16.69-1.03L16.69 0L10.36 0L10.36-8.58L16.59-8.58L16.59-7.59L11.53-7.59L11.53-4.92L16.22-4.92L16.22-3.89L11.53-3.89L11.53-1.03ZM20.39-7.59L17.48-7.59L17.48-8.58L24.42-8.58L24.42-7.59L21.52-7.59L21.52 0L20.39 0L20.39-7.59ZM30.98-7.59L28.08-7.59L28.08-8.58L35.02-8.58L35.02-7.59L32.11-7.59L32.11 0L30.98 0L30.98-7.59ZM42.84-4.27L42.84-4.27L42.84-4.27Q42.66-7.64 39.84-7.83L39.84-7.83L39.84-7.83Q36.98-7.69 36.84-4.27L36.84-4.27L36.84-4.27Q36.98-0.94 39.84-0.80L39.84-0.80L39.84-0.80Q42.66-0.98 42.84-4.27ZM44.02-4.27L44.02-4.27L44.02-4.27Q43.73 0 39.84 0.14L39.84 0.14L39.84 0.14Q35.91 0 35.63-4.27L35.63-4.27L35.63-4.27Q35.86-8.72 39.84-8.81L39.84-8.81L39.84-8.81Q43.73-8.67 44.02-4.27ZM51.23-4.31L49.88-3.05L49.88 0L48.70 0L48.70-8.58L49.88-8.58L49.88-4.41L54.05-8.58L55.69-8.58L52.08-5.11L55.78 0L54.23 0L51.23-4.31ZM58.08-8.58L62.39-1.64L62.39-8.58L63.52-8.58L63.52 0L62.20 0L57.84-6.94L57.80-6.94L57.80 0L56.67 0L56.67-8.58L58.08-8.58ZM72.09-4.27L72.09-4.27L72.09-4.27Q71.91-7.64 69.09-7.83L69.09-7.83L69.09-7.83Q66.23-7.69 66.09-4.27L66.09-4.27L66.09-4.27Q66.23-0.94 69.09-0.80L69.09-0.80L69.09-0.80Q71.91-0.98 72.09-4.27ZM73.27-4.27L73.27-4.27L73.27-4.27Q72.98 0 69.09 0.14L69.09 0.14L69.09 0.14Q65.16 0 64.88-4.27L64.88-4.27L64.88-4.27Q65.11-8.72 69.09-8.81L69.09-8.81L69.09-8.81Q72.98-8.67 73.27-4.27ZM79.41-7.13L79.36-7.13L77.39 0L76.17 0L73.92-8.58L75.14-8.58L76.78-1.59L76.83-1.59L78.75-8.58L80.02-8.58L81.94-1.59L81.98-1.59L83.58-8.58L84.84-8.58L82.59 0L81.38 0L79.41-7.13ZM97.50-8.58L97.50 0L96.38 0L96.38-5.06L96.38-5.06Q96.38-5.77 96.38-7.22L96.38-7.22L93.94 0L92.77 0L90.38-7.22L90.33-7.22L90.33-7.22Q90.33-6.70 90.38-5.67L90.38-5.67L90.38-5.67Q90.38-5.16 90.38-5.06L90.38-5.06L90.38 0L89.20 0L89.20-8.58L90.89-8.58L93.38-1.31L95.81-8.58L97.50-8.58ZM100.50-1.03L105.66-1.03L105.66 0L99.33 0L99.33-8.58L105.56-8.58L105.56-7.59L100.50-7.59L100.50-4.92L105.19-4.92L105.19-3.89L100.50-3.89L100.50-1.03Z"></path></g></g></g></g></svg>