<svg data-v-0abc779f="" version="1.0" xmlns="http://www.w3.org/2000/svg" xmlns:xlink="http://www.w3.org/1999/xlink" width="100%" height="100%" viewBox="0 0 340.000000 250.000000" preserveAspectRatio="xMidYMid meet" color-interpolation-filters="sRGB" class="el-tooltip" style="margin: auto;"><rect data-v-0abc779f="" x="0" y="0" width="100%" height="100%" fill="#009bff" fill-opacity="1"></rect>  <g data-v-0abc779f="" fill="#fff" class="pmspacesvg" transform="translate(71.23047637939453,89.95865631103516)"><g mask="url(#31ef362b9d1bec824fe69b774ac30777)"><!----> <!----> <polyline fill="#fff" stroke-width="0" fill-opacity="1" points="0,50.08268737792969 0,0 177.53904724121094,0 197.53904724121094,20 197.53904724121094,70.08268737792969 20,70.08268737792969 0,50.08268737792969"></polyline> <g fill-opacity="0"><g><rect stroke-width="2" x="0" y="0" width="197.53904724121094" height="70.08268737792969"></rect> <!----> <!----> </g> <g transform="translate(15,15)"><g class="tp-name" fill="#009bff" fill-opacity="1" transform="translate(0,0)"><g><path d="M16.48-15.24L16.48-15.24L16.48-15.24Q15.28-13.28 13.88-11.44L13.88-11.44L13.88-11.44Q12.48-9.60 11-7.92L11-7.92L11-7.92Q12.32-6.80 13.74-5.82L13.74-5.82L13.74-5.82Q15.16-4.84 16.68-4.16L16.68-4.16L16.68-4.16Q17.44-3.80 17.66-3.24L17.66-3.24L17.66-3.24Q17.88-2.68 17.70-2.20L17.70-2.20L17.70-2.20Q17.52-1.72 17.04-1.48L17.04-1.48L17.04-1.48Q16.56-1.24 15.88-1.60L15.88-1.60L15.88-1.60Q14.24-2.40 12.64-3.60L12.64-3.60L12.64-3.60Q11.04-4.80 9.52-6.28L9.52-6.28L9.52-6.28Q7.64-4.28 5.90-2.74L5.90-2.74L5.90-2.74Q4.16-1.20 2.76-0.20L2.76-0.20L2.76-0.20Q2.16 0.24 1.62 0.10L1.62 0.10L1.62 0.10Q1.08-0.04 0.82-0.46L0.82-0.46L0.82-0.46Q0.56-0.88 0.66-1.46L0.66-1.46L0.66-1.46Q0.76-2.04 1.44-2.48L1.44-2.48L1.44-2.48Q3.24-3.64 4.86-5L4.86-5L4.86-5Q6.48-6.36 7.96-7.80L7.96-7.80L7.96-7.80Q5-10.92 2.76-14.16L2.76-14.16L2.76-14.16Q2.40-14.64 2.54-15L2.54-15L2.54-15Q2.68-15.36 3.02-15.52L3.02-15.52L3.02-15.52Q3.36-15.68 3.80-15.58L3.80-15.58L3.80-15.58Q4.24-15.48 4.52-15.04L4.52-15.04L4.52-15.04Q5.20-13.96 6.48-12.44L6.48-12.44L6.48-12.44Q7.76-10.92 9.44-9.32L9.44-9.32L9.44-9.32Q12.44-12.56 14.64-15.84L14.64-15.84L14.64-15.84Q14.92-16.28 15.34-16.38L15.34-16.38L15.34-16.38Q15.76-16.48 16.08-16.34L16.08-16.34L16.08-16.34Q16.40-16.20 16.56-15.90L16.56-15.90L16.56-15.90Q16.72-15.60 16.48-15.24ZM27.44-21.72L27.44-21.72L27.44-21.72Q27.64-21.44 27.88-21.18L27.88-21.18L27.88-21.18Q28.12-20.92 28.16-20.64L28.16-20.64L28.16-20.64Q28.24-20.20 28.12-19.86L28.12-19.86L28.12-19.86Q28-19.52 27.92-19.12L27.92-19.12L27.92-19.12Q27.60-18.92 27.34-18.68L27.34-18.68L27.34-18.68Q27.08-18.44 26.80-18.40L26.80-18.40L26.64-18.36L26.64-18.36Q26.72-17.92 26.52-17.44L26.52-17.44L26.52-17.44Q26.32-16.96 25.96-16.68L25.96-16.68L25.96-16.68Q25.80-16.60 25.62-16.46L25.62-16.46L25.62-16.46Q25.44-16.32 25.20-16.28L25.20-16.28L25.20-16.28Q24.88-16.20 24.66-16.26L24.66-16.26L24.66-16.26Q24.44-16.32 24.20-16.36L24.20-16.36L24.20-16.36Q23.48-16.68 23.20-17.44L23.20-17.44L23.20-17.44Q23.12-17.44 23.08-17.40L23.08-17.40L23.08-17.40Q23.04-17.32 23.04-17.28L23.04-17.28L22.64-17.24L22.64-17.24Q22.16-17.12 21.68-17.30L21.68-17.30L21.68-17.30Q21.20-17.48 20.84-17.84L20.84-17.84L20.84-17.84Q20.52-18.32 20.54-18.96L20.54-18.96L20.54-18.96Q20.56-19.60 20.96-20.12L20.96-20.12L20.96-20.12Q21.00-20.16 21.08-20.20L21.08-20.20L21.08-20.20Q21.20-20.28 21.28-20.32L21.28-20.32L21.28-20.32Q20.76-20.64 20.64-21.32L20.64-21.32L20.64-21.32Q20.52-22.04 20.94-22.64L20.94-22.64L20.94-22.64Q21.36-23.24 22.08-23.40L22.08-23.40L22.08-23.40Q22.76-23.52 23.20-23.20L23.20-23.20L23.20-23.20Q23.40-23.56 23.64-23.74L23.64-23.74L23.64-23.74Q23.88-23.92 24.32-24.08L24.32-24.08L24.32-24.08Q24.72-24.16 25.18-24.12L25.18-24.12L25.18-24.12Q25.64-24.08 26.08-23.72L26.08-23.72L26.08-23.72Q26.36-23.32 26.52-22.94L26.52-22.94L26.52-22.94Q26.68-22.56 26.68-22.04L26.68-22.04L26.52-22L26.52-22Q26.76-21.92 26.96-21.86L26.96-21.86L26.96-21.86Q27.16-21.80 27.44-21.72ZM23.68-15.48L23.68-15.48L23.68-15.48Q23.60-13.36 23.56-11.70L23.56-11.70L23.56-11.70Q23.52-10.04 23.54-8.48L23.54-8.48L23.54-8.48Q23.56-6.92 23.64-5.30L23.64-5.30L23.64-5.30Q23.72-3.68 23.84-1.64L23.84-1.64L23.84-1.64Q23.88-0.84 23.52-0.44L23.52-0.44L23.52-0.44Q23.16-0.04 22.66-0.02L22.66-0.02L22.66-0.02Q22.16 0 21.72-0.38L21.72-0.38L21.72-0.38Q21.28-0.76 21.16-1.56L21.16-1.56L21.16-1.56Q21.00-2.72 21.00-4.48L21.00-4.48L21.00-4.48Q21.00-6.24 21.10-8.18L21.10-8.18L21.10-8.18Q21.20-10.12 21.40-12.06L21.40-12.06L21.40-12.06Q21.60-14 21.84-15.56L21.84-15.56L21.84-15.56Q21.92-16.08 22.22-16.28L22.22-16.28L22.22-16.28Q22.52-16.48 22.86-16.44L22.86-16.44L22.86-16.44Q23.20-16.40 23.44-16.14L23.44-16.14L23.44-16.14Q23.68-15.88 23.68-15.48ZM22.80-18.08L22.80-18.08L22.80-18.08Q22.96-18.08 23.16-18.32L23.16-18.32L23.16-18.32Q23.36-18.56 23.32-18.84L23.32-18.84L23.32-18.84Q23.04-19.04 22.84-19.30L22.84-19.30L22.84-19.30Q22.64-19.56 22.56-20L22.56-20L22.56-20Q22.20-20.16 21.94-19.98L21.94-19.98L21.94-19.98Q21.68-19.80 21.52-19.64L21.52-19.64L21.52-19.64Q21.32-19.40 21.24-19.02L21.24-19.02L21.24-19.02Q21.16-18.64 21.48-18.40L21.48-18.40L21.48-18.40Q21.72-18 22.10-17.96L22.10-17.96L22.10-17.96Q22.48-17.92 22.80-18.08ZM21.48-21.48L21.48-21.48L21.48-21.48Q21.48-21.28 21.60-21.08L21.60-21.08L21.60-21.08Q21.72-20.88 21.88-20.72L21.88-20.72L21.88-20.72Q22.04-20.72 22.24-20.74L22.24-20.74L22.24-20.74Q22.44-20.76 22.68-20.72L22.68-20.72L22.68-20.72Q22.76-21.08 22.98-21.32L22.98-21.32L22.98-21.32Q23.20-21.56 23.48-21.68L23.48-21.68L23.48-21.84L23.48-21.84Q23.40-22.24 23.08-22.46L23.08-22.46L23.08-22.46Q22.76-22.68 22.24-22.60L22.24-22.60L22.24-22.60Q21.80-22.52 21.60-22.20L21.60-22.20L21.60-22.20Q21.40-21.88 21.48-21.48ZM25.40-17.28L25.40-17.28L25.40-17.28Q25.72-17.48 25.78-17.76L25.78-17.76L25.78-17.76Q25.84-18.04 25.80-18.32L25.80-18.32L25.80-18.32Q25.72-18.76 25.24-19.08L25.24-19.08L25.24-19.08Q25.08-18.92 24.88-18.82L24.88-18.82L24.88-18.82Q24.68-18.72 24.48-18.64L24.48-18.64L24.08-18.60L24.08-18.60Q24.12-18.40 24.04-18.24L24.04-18.24L23.80-17.84L23.80-17.84Q23.84-17.64 23.98-17.46L23.98-17.46L23.98-17.46Q24.12-17.28 24.48-17.12L24.48-17.12L24.48-17.12Q24.96-17 25.40-17.28ZM27.28-19.56L27.28-19.56L27.28-19.56Q27.28-19.84 27.36-20L27.36-20L27.36-20Q27.44-20.16 27.36-20.48L27.36-20.48L27.36-20.48Q27.36-20.64 27.24-20.76L27.24-20.76L27.24-20.76Q27.12-20.88 26.96-21.12L26.96-21.12L26.64-21.20L26.64-21.20Q26.48-21.28 26.28-21.24L26.28-21.24L26.28-21.24Q26.12-21.12 26.00-21L26.00-21L26.00-21Q25.88-20.88 25.80-20.72L25.80-20.72L25.80-20.60L25.80-20.60Q25.84-20.36 25.82-20.12L25.82-20.12L25.82-20.12Q25.80-19.88 25.68-19.72L25.68-19.72L25.68-19.72Q25.92-19.56 26.06-19.46L26.06-19.46L26.06-19.46Q26.20-19.36 26.36-19.12L26.36-19.12L26.36-19.12Q26.56-19.08 26.82-19.20L26.82-19.20L26.82-19.20Q27.08-19.32 27.28-19.56ZM24.48-23.28L24.48-23.28L24.48-23.28Q24.00-23.20 23.88-22.72L23.88-22.72L23.88-22.72Q24.00-22.56 24.10-22.38L24.10-22.38L24.10-22.38Q24.20-22.20 24.24-22L24.24-22L24.28-21.84L24.28-21.84Q24.64-21.92 24.88-21.80L24.88-21.80L24.88-21.80Q25.12-21.68 25.36-21.52L25.36-21.52L25.36-21.52Q25.56-21.56 25.70-21.74L25.70-21.74L25.70-21.74Q25.84-21.92 25.80-22.12L25.80-22.12L25.80-22.12Q25.84-22.48 25.78-22.68L25.78-22.68L25.78-22.68Q25.72-22.88 25.48-23.04L25.48-23.04L25.48-23.04Q25.32-23.36 25.04-23.42L25.04-23.42L25.04-23.42Q24.76-23.48 24.48-23.28ZM23.92-19.40L24.32-19.48L24.32-19.48Q25.12-19.64 25.00-20.48L25.00-20.48L25.00-20.48Q24.92-20.72 24.68-20.94L24.68-20.94L24.68-20.94Q24.44-21.16 24.00-21.08L24.00-21.08L24.00-21.08Q23.68-21.04 23.50-20.74L23.50-20.74L23.50-20.74Q23.32-20.44 23.36-20.16L23.36-20.16L23.36-20.16Q23.44-19.72 23.92-19.40L23.92-19.40ZM54.40-1.40L54.40-1.40L54.40-1.40Q54.24-0.64 53.80-0.30L53.80-0.30L53.80-0.30Q53.36 0.04 52.90-0.02L52.90-0.02L52.90-0.02Q52.44-0.08 52.10-0.48L52.10-0.48L52.10-0.48Q51.76-0.88 51.76-1.60L51.76-1.60L51.76-1.60Q51.80-3.24 51.94-5L51.94-5L51.94-5Q52.08-6.76 52.04-8.68L52.04-8.68L52.04-8.68Q52-10.44 51.42-11.80L51.42-11.80L51.42-11.80Q50.84-13.16 49.88-13.82L49.88-13.82L49.88-13.82Q48.92-14.48 47.70-14.28L47.70-14.28L47.70-14.28Q46.48-14.08 45.16-12.72L45.16-12.72L45.16-12.72Q44.96-12.52 44.72-12.04L44.72-12.04L44.72-12.04Q44.48-11.56 44.28-10.98L44.28-10.98L44.28-10.98Q44.08-10.40 43.92-9.76L43.92-9.76L43.92-9.76Q43.76-9.12 43.72-8.60L43.72-8.60L43.72-8.60Q43.64-7.20 43.70-5.82L43.70-5.82L43.70-5.82Q43.76-4.44 43.60-3.36L43.60-3.36L43.60-3.36Q43.52-2.84 43.22-2.56L43.22-2.56L43.22-2.56Q42.92-2.28 42.56-2.24L42.56-2.24L42.56-2.24Q42.20-2.20 41.86-2.48L41.86-2.48L41.86-2.48Q41.52-2.76 41.36-3.36L41.36-3.36L41.36-3.36Q41.16-4.28 41.14-5.58L41.14-5.58L41.14-5.58Q41.12-6.88 41.12-8.68L41.12-8.68L41.12-8.68Q41.12-10.84 40.50-12.22L40.50-12.22L40.50-12.22Q39.88-13.60 38.78-13.98L38.78-13.98L38.78-13.98Q37.68-14.36 36.12-13.60L36.12-13.60L36.12-13.60Q34.56-12.84 32.64-10.68L32.64-10.68L32.64-10.68Q32.72-8.84 32.88-6.64L32.88-6.64L32.88-6.64Q33.04-4.44 33.28-2.08L33.28-2.08L33.28-2.08Q33.36-1.12 32.94-0.56L32.94-0.56L32.94-0.56Q32.52 0 31.96 0.04L31.96 0.04L31.96 0.04Q31.40 0.08 30.90-0.42L30.90-0.42L30.90-0.42Q30.40-0.92 30.36-2.04L30.36-2.04L30.36-2.04Q30.28-4.28 30.22-6.34L30.22-6.34L30.22-6.34Q30.16-8.40 30.20-10.16L30.20-10.16L30.20-10.16Q30.24-11.92 30.38-13.34L30.38-13.34L30.38-13.34Q30.52-14.76 30.80-15.72L30.80-15.72L30.80-15.72Q30.92-16.20 31.26-16.40L31.26-16.40L31.26-16.40Q31.60-16.60 31.94-16.54L31.94-16.54L31.94-16.54Q32.28-16.48 32.52-16.18L32.52-16.18L32.52-16.18Q32.76-15.88 32.72-15.36L32.72-15.36L32.72-15.36Q32.60-14.52 32.60-13.16L32.60-13.16L32.60-13.16Q33.88-14.72 35.36-15.56L35.36-15.56L35.36-15.56Q36.84-16.40 38.24-16.46L38.24-16.46L38.24-16.46Q39.64-16.52 40.88-15.74L40.88-15.74L40.88-15.74Q42.12-14.96 42.92-13.28L42.92-13.28L42.92-13.28Q44.12-14.88 45.44-15.66L45.44-15.66L45.44-15.66Q46.76-16.44 48.04-16.50L48.04-16.50L48.04-16.50Q49.32-16.56 50.48-16L50.48-16L50.48-16Q51.64-15.44 52.54-14.42L52.54-14.42L52.54-14.42Q53.44-13.40 53.98-11.96L53.98-11.96L53.98-11.96Q54.52-10.52 54.60-8.84L54.60-8.84L54.60-8.84Q54.64-7.44 54.66-6.36L54.66-6.36L54.66-6.36Q54.68-5.28 54.68-4.42L54.68-4.42L54.68-4.42Q54.68-3.56 54.60-2.84L54.60-2.84L54.60-2.84Q54.52-2.12 54.40-1.40ZM63.60-18.48L63.60-18.48L63.60-18.48Q64.20-18.80 64.66-18.74L64.66-18.74L64.66-18.74Q65.12-18.68 65.42-18.34L65.42-18.34L65.42-18.34Q65.72-18 65.86-17.56L65.86-17.56L65.86-17.56Q66-17.12 65.88-16.76L65.88-16.76L65.88-16.76Q66.24-16.80 66.60-16.76L66.60-16.76L66.60-16.76Q69.04-16.56 70.92-15.40L70.92-15.40L70.92-15.40Q72.80-14.24 73.86-12.12L73.86-12.12L73.86-12.12Q74.92-10 74.56-7.08L74.56-7.08L74.56-7.08Q73.24-0.88 70.26-0.14L70.26-0.14L70.26-0.14Q67.28 0.60 63.68 0.04L63.68 0.04L63.68 0.04Q61.56-0.36 60.12-1.60L60.12-1.60L60.12-1.60Q58.68-2.84 58.12-4.58L58.12-4.58L58.12-4.58Q57.56-6.32 57.96-8.40L57.96-8.40L57.96-8.40Q58.16-9.52 58.76-10.64L58.76-10.64L58.76-10.64Q58.56-10.60 58.36-10.60L58.36-10.60L58.36-10.60Q57.28-10.76 57.08-11.62L57.08-11.62L57.08-11.62Q56.88-12.48 57.48-13.48L57.48-13.48L57.48-13.48Q57.72-13.92 58.22-14.24L58.22-14.24L58.22-14.24Q58.72-14.56 59.16-14.76L59.16-14.76L59.16-14.76Q59.60-14.96 60.28-15L60.28-15L60.28-15Q60.40-14.96 60.44-14.92L60.44-14.92L60.44-14.92Q60.56-14.88 60.46-14.94L60.46-14.94L60.46-14.94Q60.36-15 60.04-15.20L60.04-15.20L60.04-15.20Q59.24-15.84 59.04-16.58L59.04-16.58L59.04-16.58Q58.84-17.32 59.76-17.68L59.76-17.68L59.76-17.68Q60.08-17.84 60.46-17.66L60.46-17.66L60.46-17.66Q60.84-17.48 61.16-17.16L61.16-17.16L61.16-17.16Q61.52-16.80 61.84-16.36L61.84-16.36L61.84-16.36Q62.12-17.16 62.52-17.66L62.52-17.66L62.52-17.66Q62.92-18.16 63.60-18.48ZM59.96-8.28L59.96-8.28L59.96-8.28Q59.72-6.60 60.26-5.26L60.26-5.26L60.26-5.26Q60.80-3.92 61.94-3.04L61.94-3.04L61.94-3.04Q63.08-2.16 64.52-1.88L64.52-1.88L64.52-1.88Q66.88-1.56 69-2.08L69-2.08L69-2.08Q71.12-2.60 72.04-7.60L72.04-7.60L72.04-7.60Q72.32-9.64 71.60-11.14L71.60-11.14L71.60-11.14Q70.88-12.64 69.54-13.46L69.54-13.46L69.54-13.46Q68.20-14.28 66.44-14.40L66.44-14.40L66.44-14.40Q65.80-14.44 65.12-14.36L65.12-14.36L65.12-14.36Q65.08-14.08 65-13.80L65-13.80L65-13.80Q64.88-13.52 64.60-13.32L64.60-13.32L64.60-13.32Q64.48-13.16 64.16-13.22L64.16-13.22L64.16-13.22Q63.84-13.28 63.52-13.36L63.52-13.36L63.52-13.36Q63.12-13.44 62.80-13.68L62.80-13.68L62.80-13.68Q62.88-13.52 63-13.32L63-13.32L63-13.32Q63.16-12.88 63.20-12.52L63.20-12.52L63.20-12.52Q63.20-12.32 62.98-11.76L62.98-11.76L62.98-11.76Q62.76-11.20 61.80-11.16L61.80-11.16L61.80-11.16Q61.40-11.20 61.20-11.40L61.20-11.40L61.20-11.40Q60.16-9.76 59.96-8.28ZM69.76-9.16L69.76-9.16L69.76-9.16Q70-8.20 69.52-7.88L69.52-7.88L69.52-7.88Q69.24-7.68 68.92-7.74L68.92-7.74L68.92-7.74Q68.60-7.80 68.52-8.08L68.52-8.08L68.52-8.08Q68.28-8.92 68.76-9.32L68.76-9.32L68.76-9.32Q68.92-9.48 69.24-9.42L69.24-9.42L69.24-9.42Q69.56-9.36 69.76-9.16ZM62.88-8.84L62.88-8.84L62.88-8.84Q63-8.16 62.64-7.56L62.64-7.56L62.64-7.56Q62.40-7.44 62.08-7.52L62.08-7.52L62.08-7.52Q61.76-7.60 61.64-8.04L61.64-8.04L61.64-8.04Q61.48-8.28 61.54-8.60L61.54-8.60L61.54-8.60Q61.60-8.92 61.84-9.04L61.84-9.04L61.84-9.04Q62.08-9.24 62.40-9.18L62.40-9.18L62.40-9.18Q62.72-9.12 62.88-8.84ZM68.28-5.72L68.28-5.72L68.28-5.72Q68.48-5.52 68.42-5.20L68.42-5.20L68.42-5.20Q68.36-4.88 68.12-4.68L68.12-4.68L68.12-4.68Q67.88-4.52 67.56-4.58L67.56-4.58L67.56-4.58Q67.24-4.64 67.12-4.88L67.12-4.88L67.12-4.88Q66.88-5.60 67.36-6.12L67.36-6.12L67.36-6.12Q67.56-6.36 67.86-6.26L67.86-6.26L67.86-6.26Q68.16-6.16 68.28-5.72ZM66.36-9.48L66.36-9.48L66.36-9.48Q66.56-9.28 66.50-8.96L66.50-8.96L66.50-8.96Q66.44-8.64 66.20-8.52L66.20-8.52L66.20-8.52Q65.32-8.20 64.92-8.76L64.92-8.76L64.92-8.76Q64.80-8.96 64.88-9.26L64.88-9.26L64.88-9.26Q64.96-9.56 65.40-9.64L65.40-9.64L65.40-9.64Q65.64-9.84 65.94-9.78L65.94-9.78L65.94-9.78Q66.24-9.72 66.36-9.48ZM64.96-6.12L64.96-6.12L64.96-6.12Q65.32-5.80 65.18-5.50L65.18-5.50L65.18-5.50Q65.04-5.20 64.76-5.08L64.76-5.08L64.76-5.08Q64.56-4.88 64.24-4.94L64.24-4.94L64.24-4.94Q63.92-5 63.72-5.28L63.72-5.28L63.72-5.28Q63.60-5.48 63.66-5.78L63.66-5.78L63.66-5.78Q63.72-6.08 63.92-6.32L63.92-6.32L63.92-6.32Q64.20-6.44 64.52-6.38L64.52-6.38L64.52-6.38Q64.84-6.32 64.96-6.12ZM68.72-11.96L68.72-11.96L68.72-11.96Q69.04-11.64 69-11.36L69-11.36L69-11.36Q68.96-11.08 68.52-10.92L68.52-10.92L68.52-10.92Q68.28-10.76 67.96-10.82L67.96-10.82L67.96-10.82Q67.64-10.88 67.52-11.12L67.52-11.12L67.52-11.12Q67.12-11.72 67.72-12.12L67.72-12.12L67.72-12.12Q67.92-12.28 68.24-12.22L68.24-12.22L68.24-12.22Q68.56-12.16 68.72-11.96ZM78.64-14.80L78.64-14.80L78.64-14.80Q79.00-15.64 79.52-15.94L79.52-15.94L79.52-15.94Q80.04-16.24 80.48-16.12L80.48-16.12L80.48-16.12Q80.92-16 81.16-15.54L81.16-15.54L81.16-15.54Q81.40-15.08 81.16-14.48L81.16-14.48L81.16-14.48Q80.40-12.40 80.18-10.40L80.18-10.40L80.18-10.40Q79.96-8.40 80.08-6.96L80.08-6.96L80.08-6.96Q80.28-4.56 81.14-3.42L81.14-3.42L81.14-3.42Q82.00-2.28 83.22-2.20L83.22-2.20L83.22-2.20Q84.44-2.12 85.84-2.98L85.84-2.98L85.84-2.98Q87.24-3.84 88.52-5.44L88.52-5.44L88.52-5.44Q88.44-6.36 88.44-7.54L88.44-7.54L88.44-7.54Q88.44-8.72 88.54-9.98L88.54-9.98L88.54-9.98Q88.64-11.24 88.80-12.44L88.80-12.44L88.80-12.44Q88.96-13.64 89.24-14.60L89.24-14.60L89.24-14.60Q89.48-15.52 90.00-15.90L90.00-15.90L90.00-15.90Q90.52-16.28 91.00-16.18L91.00-16.18L91.00-16.18Q91.48-16.08 91.78-15.58L91.78-15.58L91.78-15.58Q92.08-15.08 91.88-14.24L91.88-14.24L91.88-14.24Q91.68-13.32 91.44-12L91.44-12L91.44-12Q91.20-10.68 91.04-9.28L91.04-9.28L91.04-9.28Q90.88-7.88 90.86-6.50L90.86-6.50L90.86-6.50Q90.84-5.12 91.08-4.06L91.08-4.06L91.08-4.06Q91.32-3 91.88-2.42L91.88-2.42L91.88-2.42Q92.44-1.84 93.44-2L93.44-2L93.44-2Q93.72-2.04 93.92-1.88L93.92-1.88L93.92-1.88Q94.12-1.72 94.20-1.48L94.20-1.48L94.20-1.48Q94.28-1.24 94.20-1.02L94.20-1.02L94.20-1.02Q94.12-0.80 93.84-0.72L93.84-0.72L93.84-0.72Q92.08-0.24 90.92-0.84L90.92-0.84L90.92-0.84Q89.76-1.44 89.08-3.48L89.08-3.48L89.08-3.48Q87.40-1.28 85.46-0.48L85.46-0.48L85.46-0.48Q83.52 0.32 81.84-0.12L81.84-0.12L81.84-0.12Q80.16-0.56 78.96-2.22L78.96-2.22L78.96-2.22Q77.76-3.88 77.60-6.64L77.60-6.64L77.60-6.64Q77.40-9.44 77.78-11.54L77.78-11.54L77.78-11.54Q78.16-13.64 78.64-14.80ZM109.60-0.96L109.60-0.96L109.60-0.96Q108.28-0.56 106.78-0.34L106.78-0.34L106.78-0.34Q105.28-0.12 103.78-0.04L103.78-0.04L103.78-0.04Q102.28 0.04 100.86-0.06L100.86-0.06L100.86-0.06Q99.44-0.16 98.28-0.40L98.28-0.40L98.28-0.40Q96.96-0.68 96.32-1.22L96.32-1.22L96.32-1.22Q95.68-1.76 95.56-2.38L95.56-2.38L95.56-2.38Q95.44-3 95.70-3.62L95.70-3.62L95.70-3.62Q95.96-4.24 96.40-4.68L96.40-4.68L96.40-4.68Q97.52-5.80 98.66-6.68L98.66-6.68L98.66-6.68Q99.80-7.56 101.04-8.42L101.04-8.42L101.04-8.42Q102.28-9.28 103.64-10.22L103.64-10.22L103.64-10.22Q105.00-11.16 106.60-12.40L106.60-12.40L106.60-12.40Q107.04-12.76 107.38-13.10L107.38-13.10L107.38-13.10Q107.72-13.44 107.80-13.68L107.80-13.68L107.80-13.68Q107.88-13.92 107.66-14.06L107.66-14.06L107.66-14.06Q107.44-14.20 106.80-14.12L106.80-14.12L106.80-14.12Q104.64-13.88 102.58-13.74L102.58-13.74L102.58-13.74Q100.52-13.60 98.04-13.88L98.04-13.88L98.04-13.88Q97.48-13.92 97.20-14.20L97.20-14.20L97.20-14.20Q96.92-14.48 96.90-14.78L96.90-14.78L96.90-14.78Q96.88-15.08 97.16-15.32L97.16-15.32L97.16-15.32Q97.44-15.56 98.00-15.56L98.00-15.56L98.00-15.56Q99.36-15.52 100.38-15.58L100.38-15.58L100.38-15.58Q101.40-15.64 102.48-15.76L102.48-15.76L102.48-15.76Q103.56-15.88 104.88-16.06L104.88-16.06L104.88-16.06Q106.20-16.24 108.12-16.40L108.12-16.40L108.12-16.40Q109.44-16.52 110.04-16.06L110.04-16.06L110.04-16.06Q110.64-15.60 110.68-14.84L110.68-14.84L110.68-14.84Q110.72-14.08 110.24-13.18L110.24-13.18L110.24-13.18Q109.76-12.28 108.88-11.48L108.88-11.48L108.88-11.48Q107.52-10.24 105.98-9.14L105.98-9.14L105.98-9.14Q104.44-8.04 103.00-7.12L103.00-7.12L103.00-7.12Q101.56-6.20 100.42-5.42L100.42-5.42L100.42-5.42Q99.28-4.64 98.68-4.04L98.68-4.04L98.68-4.04Q98.08-3.44 98.18-3L98.18-3L98.18-3Q98.28-2.56 99.40-2.32L99.40-2.32L99.40-2.32Q100.48-2.08 101.54-2.06L101.54-2.06L101.54-2.06Q102.60-2.04 103.80-2.20L103.80-2.20L103.80-2.20Q105.00-2.36 106.38-2.70L106.38-2.70L106.38-2.70Q107.76-3.04 109.52-3.48L109.52-3.48L109.52-3.48Q110.44-3.72 110.92-3.46L110.92-3.46L110.92-3.46Q111.40-3.20 111.42-2.74L111.42-2.74L111.42-2.74Q111.44-2.28 110.98-1.76L110.98-1.76L110.98-1.76Q110.52-1.24 109.60-0.96ZM129.68-1.36L129.68-1.36L129.68-1.36Q129.56-0.60 129.16-0.26L129.16-0.26L129.16-0.26Q128.76 0.08 128.34 0.02L128.34 0.02L128.34 0.02Q127.92-0.04 127.60-0.44L127.60-0.44L127.60-0.44Q127.28-0.84 127.28-1.56L127.28-1.56L127.28-1.56Q127.32-3.20 127.32-4.96L127.32-4.96L127.32-8.68L127.32-8.68Q127.32-10.68 126.50-12.16L126.50-12.16L126.50-12.16Q125.68-13.64 124.34-14.08L124.34-14.08L124.34-14.08Q123.00-14.52 121.24-13.66L121.24-13.66L121.24-13.66Q119.48-12.80 117.60-10.16L117.60-10.16L117.52-10.08L117.52-10.08Q117.44-5.68 117.76-1.76L117.76-1.76L117.76-1.76Q117.80-0.80 117.44-0.40L117.44-0.40L117.44-0.40Q117.08 0 116.58-0.04L116.58-0.04L116.58-0.04Q116.08-0.08 115.64-0.52L115.64-0.52L115.64-0.52Q115.20-0.96 115.12-1.72L115.12-1.72L115.12-1.72Q114.80-4.84 114.86-8.22L114.86-8.22L114.86-8.22Q114.92-11.60 115.16-14.60L115.16-14.60L115.16-14.60Q115.40-17.60 115.76-19.90L115.76-19.90L115.76-19.90Q116.12-22.20 116.40-23.16L116.40-23.16L116.40-23.16Q116.52-23.64 116.86-23.84L116.86-23.84L116.86-23.84Q117.20-24.04 117.54-24L117.54-24L117.54-24Q117.88-23.96 118.12-23.70L118.12-23.70L118.12-23.70Q118.36-23.44 118.32-23L118.32-23L118.32-23Q117.80-17.84 117.60-12.84L117.60-12.84L117.60-12.84Q118.88-14.56 120.26-15.42L120.26-15.42L120.26-15.42Q121.64-16.28 122.98-16.42L122.98-16.42L122.98-16.42Q124.32-16.56 125.54-16.06L125.54-16.06L125.54-16.06Q126.76-15.56 127.68-14.56L127.68-14.56L127.68-14.56Q128.60-13.56 129.18-12.08L129.18-12.08L129.18-12.08Q129.76-10.60 129.80-8.84L129.80-8.84L129.80-8.84Q129.84-7.44 129.88-6.36L129.88-6.36L129.88-6.36Q129.92-5.28 129.92-4.40L129.92-4.40L129.92-4.40Q129.92-3.52 129.86-2.80L129.86-2.80L129.86-2.80Q129.80-2.08 129.68-1.36ZM149.04-1.68L149.04-1.68L149.04-1.68Q149.32-1.76 149.52-1.62L149.52-1.62L149.52-1.62Q149.72-1.48 149.78-1.26L149.78-1.26L149.78-1.26Q149.84-1.04 149.76-0.78L149.76-0.78L149.76-0.78Q149.68-0.52 149.44-0.40L149.44-0.40L149.44-0.40Q148.72-0.04 147.94 0L147.94 0L147.94 0Q147.16 0.04 146.42-0.20L146.42-0.20L146.42-0.20Q145.68-0.44 145.08-0.96L145.08-0.96L145.08-0.96Q144.48-1.48 144.12-2.28L144.12-2.28L144.12-2.28Q143.16-1.32 142.00-0.72L142.00-0.72L142.00-0.72Q140.84-0.12 139.66 0.06L139.66 0.06L139.66 0.06Q138.48 0.24 137.36 0.02L137.36 0.02L137.36 0.02Q136.24-0.20 135.36-0.88L135.36-0.88L135.36-0.88Q134.08-1.80 133.36-3.34L133.36-3.34L133.36-3.34Q132.64-4.88 132.56-6.72L132.56-6.72L132.56-6.72Q132.48-8.56 133.12-10.48L133.12-10.48L133.12-10.48Q133.76-12.40 135.24-14.12L135.24-14.12L135.24-14.12Q136.60-15.68 138.36-16.34L138.36-16.34L138.36-16.34Q140.12-17 141.88-16.82L141.88-16.82L141.88-16.82Q143.64-16.64 145.20-15.62L145.20-15.62L145.20-15.62Q146.76-14.60 147.72-12.88L147.72-12.88L147.72-12.88Q148.12-12.12 148.00-11.60L148.00-11.60L148.00-11.60Q147.88-11.08 147.46-10.86L147.46-10.86L147.46-10.86Q147.04-10.64 146.50-10.76L146.50-10.76L146.50-10.76Q145.96-10.88 145.60-11.48L145.60-11.48L145.60-11.48Q144.80-12.68 143.84-13.46L143.84-13.46L143.84-13.46Q142.88-14.24 141.76-14.44L141.76-14.44L141.76-14.44Q140.64-14.64 139.46-14.24L139.46-14.24L139.46-14.24Q138.28-13.84 137.08-12.68L137.08-12.68L137.08-12.68Q135.96-11.60 135.40-10.10L135.40-10.10L135.40-10.10Q134.84-8.60 134.80-7.12L134.80-7.12L134.80-7.12Q134.76-5.64 135.22-4.36L135.22-4.36L135.22-4.36Q135.68-3.08 136.60-2.48L136.60-2.48L136.60-2.48Q137.36-1.96 138.36-1.90L138.36-1.90L138.36-1.90Q139.36-1.84 140.38-2.26L140.38-2.26L140.38-2.26Q141.40-2.68 142.32-3.58L142.32-3.58L142.32-3.58Q143.24-4.48 143.92-5.88L143.92-5.88L143.92-5.88Q144.12-6.72 144.52-7.60L144.52-7.60L144.56-7.72L144.56-7.72Q144.72-8.36 145.10-8.60L145.10-8.60L145.10-8.60Q145.48-8.84 145.88-8.76L145.88-8.76L145.88-8.76Q146.28-8.68 146.56-8.32L146.56-8.32L146.56-8.32Q146.84-7.96 146.76-7.40L146.76-7.40L146.76-7.28L146.76-7.28Q146.60-6.56 146.32-5.80L146.32-5.80L146.32-5.80Q146.00-4.40 146.18-3.50L146.18-3.50L146.18-3.50Q146.36-2.60 146.78-2.12L146.78-2.12L146.78-2.12Q147.20-1.64 147.82-1.54L147.82-1.54L147.82-1.54Q148.44-1.44 149.04-1.68ZM157.12-18.48L157.12-18.48L157.12-18.48Q157.72-18.80 158.18-18.74L158.18-18.74L158.18-18.74Q158.64-18.68 158.94-18.34L158.94-18.34L158.94-18.34Q159.24-18 159.38-17.56L159.38-17.56L159.38-17.56Q159.52-17.12 159.40-16.76L159.40-16.76L159.40-16.76Q159.76-16.80 160.12-16.76L160.12-16.76L160.12-16.76Q162.56-16.56 164.44-15.40L164.44-15.40L164.44-15.40Q166.32-14.24 167.38-12.12L167.38-12.12L167.38-12.12Q168.44-10 168.08-7.08L168.08-7.08L168.08-7.08Q166.76-0.88 163.78-0.14L163.78-0.14L163.78-0.14Q160.80 0.60 157.20 0.04L157.20 0.04L157.20 0.04Q155.08-0.36 153.64-1.60L153.64-1.60L153.64-1.60Q152.20-2.84 151.64-4.58L151.64-4.58L151.64-4.58Q151.08-6.32 151.48-8.40L151.48-8.40L151.48-8.40Q151.68-9.52 152.28-10.64L152.28-10.64L152.28-10.64Q152.08-10.60 151.88-10.60L151.88-10.60L151.88-10.60Q150.80-10.76 150.60-11.62L150.60-11.62L150.60-11.62Q150.40-12.48 151.00-13.48L151.00-13.48L151.00-13.48Q151.24-13.92 151.74-14.24L151.74-14.24L151.74-14.24Q152.24-14.56 152.68-14.76L152.68-14.76L152.68-14.76Q153.12-14.96 153.80-15L153.80-15L153.80-15Q153.92-14.96 153.96-14.92L153.96-14.92L153.96-14.92Q154.08-14.88 153.98-14.94L153.98-14.94L153.98-14.94Q153.88-15 153.56-15.20L153.56-15.20L153.56-15.20Q152.76-15.84 152.56-16.58L152.56-16.58L152.56-16.58Q152.36-17.32 153.28-17.68L153.28-17.68L153.28-17.68Q153.60-17.84 153.98-17.66L153.98-17.66L153.98-17.66Q154.36-17.48 154.68-17.16L154.68-17.16L154.68-17.16Q155.04-16.80 155.36-16.36L155.36-16.36L155.36-16.36Q155.64-17.16 156.04-17.66L156.04-17.66L156.04-17.66Q156.44-18.16 157.12-18.48ZM153.48-8.28L153.48-8.28L153.48-8.28Q153.24-6.60 153.78-5.26L153.78-5.26L153.78-5.26Q154.32-3.92 155.46-3.04L155.46-3.04L155.46-3.04Q156.60-2.16 158.04-1.88L158.04-1.88L158.04-1.88Q160.40-1.56 162.52-2.08L162.52-2.08L162.52-2.08Q164.64-2.60 165.56-7.60L165.56-7.60L165.56-7.60Q165.84-9.64 165.12-11.14L165.12-11.14L165.12-11.14Q164.40-12.64 163.06-13.46L163.06-13.46L163.06-13.46Q161.72-14.28 159.96-14.40L159.96-14.40L159.96-14.40Q159.32-14.44 158.64-14.36L158.64-14.36L158.64-14.36Q158.60-14.08 158.52-13.80L158.52-13.80L158.52-13.80Q158.40-13.52 158.12-13.32L158.12-13.32L158.12-13.32Q158.00-13.16 157.68-13.22L157.68-13.22L157.68-13.22Q157.36-13.28 157.04-13.36L157.04-13.36L157.04-13.36Q156.64-13.44 156.32-13.68L156.32-13.68L156.32-13.68Q156.40-13.52 156.52-13.32L156.52-13.32L156.52-13.32Q156.68-12.88 156.72-12.52L156.72-12.52L156.72-12.52Q156.72-12.32 156.50-11.76L156.50-11.76L156.50-11.76Q156.28-11.20 155.32-11.16L155.32-11.16L155.32-11.16Q154.92-11.20 154.72-11.40L154.72-11.40L154.72-11.40Q153.68-9.76 153.48-8.28ZM163.28-9.16L163.28-9.16L163.28-9.16Q163.52-8.20 163.04-7.88L163.04-7.88L163.04-7.88Q162.76-7.68 162.44-7.74L162.44-7.74L162.44-7.74Q162.12-7.80 162.04-8.08L162.04-8.08L162.04-8.08Q161.80-8.92 162.28-9.32L162.28-9.32L162.28-9.32Q162.44-9.48 162.76-9.42L162.76-9.42L162.76-9.42Q163.08-9.36 163.28-9.16ZM156.40-8.84L156.40-8.84L156.40-8.84Q156.52-8.16 156.16-7.56L156.16-7.56L156.16-7.56Q155.92-7.44 155.60-7.52L155.60-7.52L155.60-7.52Q155.28-7.60 155.16-8.04L155.16-8.04L155.16-8.04Q155.00-8.28 155.06-8.60L155.06-8.60L155.06-8.60Q155.12-8.92 155.36-9.04L155.36-9.04L155.36-9.04Q155.60-9.24 155.92-9.18L155.92-9.18L155.92-9.18Q156.24-9.12 156.40-8.84ZM161.80-5.72L161.80-5.72L161.80-5.72Q162.00-5.52 161.94-5.20L161.94-5.20L161.94-5.20Q161.88-4.88 161.64-4.68L161.64-4.68L161.64-4.68Q161.40-4.52 161.08-4.58L161.08-4.58L161.08-4.58Q160.76-4.64 160.64-4.88L160.64-4.88L160.64-4.88Q160.40-5.60 160.88-6.12L160.88-6.12L160.88-6.12Q161.08-6.36 161.38-6.26L161.38-6.26L161.38-6.26Q161.68-6.16 161.80-5.72ZM159.88-9.48L159.88-9.48L159.88-9.48Q160.08-9.28 160.02-8.96L160.02-8.96L160.02-8.96Q159.96-8.64 159.72-8.52L159.72-8.52L159.72-8.52Q158.84-8.20 158.44-8.76L158.44-8.76L158.44-8.76Q158.32-8.96 158.40-9.26L158.40-9.26L158.40-9.26Q158.48-9.56 158.92-9.64L158.92-9.64L158.92-9.64Q159.16-9.84 159.46-9.78L159.46-9.78L159.46-9.78Q159.76-9.72 159.88-9.48ZM158.48-6.12L158.48-6.12L158.48-6.12Q158.84-5.80 158.70-5.50L158.70-5.50L158.70-5.50Q158.56-5.20 158.28-5.08L158.28-5.08L158.28-5.08Q158.08-4.88 157.76-4.94L157.76-4.94L157.76-4.94Q157.44-5 157.24-5.28L157.24-5.28L157.24-5.28Q157.12-5.48 157.18-5.78L157.18-5.78L157.18-5.78Q157.24-6.08 157.44-6.32L157.44-6.32L157.44-6.32Q157.72-6.44 158.04-6.38L158.04-6.38L158.04-6.38Q158.36-6.32 158.48-6.12ZM162.24-11.96L162.24-11.96L162.24-11.96Q162.56-11.64 162.52-11.36L162.52-11.36L162.52-11.36Q162.48-11.08 162.04-10.92L162.04-10.92L162.04-10.92Q161.80-10.76 161.48-10.82L161.48-10.82L161.48-10.82Q161.16-10.88 161.04-11.12L161.04-11.12L161.04-11.12Q160.64-11.72 161.24-12.12L161.24-12.12L161.24-12.12Q161.44-12.28 161.76-12.22L161.76-12.22L161.76-12.22Q162.08-12.16 162.24-11.96Z" transform="translate(-0.6325, 24.133333320618)"></path></g> <!----> <!----> <!----> <!----> <!----> <!----> <!----></g> <g class="tp-slogan" fill="#009bff" fill-opacity="1" transform="translate(58.2495231628418,31.41456413269043)"><!----> <!----> <!----> <g><path d="M0.80-8.58L1.88-8.58L1.88 0L0.80 0L0.80-8.58ZM3.42-6.28L4.50-6.28L4.50 0L3.42 0L3.42-6.28ZM4.50-8.58L4.50-7.41L3.42-7.41L3.42-8.58L4.50-8.58ZM8.16-1.13L8.20-1.13L9.98-6.28L11.11-6.28L8.77 0L7.64 0L5.34-6.28L6.56-6.28L8.16-1.13ZM16.31-1.97L16.31-1.97L17.34-1.97L17.34-1.97Q17.16-0.89 16.22-0.23L16.22-0.23L16.22-0.23Q15.70 0.09 14.53 0.09L14.53 0.09L14.53 0.09Q11.86 0 11.72-2.95L11.72-2.95L11.72-2.95Q11.81-6.38 14.72-6.47L14.72-6.47L14.72-6.47Q17.39-6.42 17.44-2.77L17.44-2.77L12.84-2.77L12.84-2.77Q12.84-0.70 14.67-0.70L14.67-0.70L14.67-0.70Q15.98-0.80 16.31-1.97ZM12.84-3.61L12.84-3.61L16.36-3.61L16.36-3.61Q16.22-5.48 14.58-5.48L14.58-5.48L14.58-5.48Q13.03-5.34 12.84-3.61ZM22.92-0.75L22.92 0L21.94 0L21.94-8.58L22.97-8.58L22.97-5.48L23.02-5.48L23.02-5.48Q23.58-6.42 24.80-6.47L24.80-6.47L24.80-6.47Q27.28-6.33 27.42-3.33L27.42-3.33L27.42-3.33Q27.28 0 24.66 0.09L24.66 0.09L24.66 0.09Q23.48 0.09 22.97-0.75L22.97-0.75L22.92-0.75ZM26.34-3.14L26.34-3.14L26.34-3.14Q26.39-5.48 24.61-5.48L24.61-5.48L24.61-5.48Q22.92-5.48 22.92-2.81L22.92-2.81L22.92-2.81Q22.97-0.84 24.66-0.70L24.66-0.70L24.66-0.70Q26.30-0.75 26.34-3.14ZM32.95-1.97L32.95-1.97L33.98-1.97L33.98-1.97Q33.80-0.89 32.86-0.23L32.86-0.23L32.86-0.23Q32.34 0.09 31.17 0.09L31.17 0.09L31.17 0.09Q28.50 0 28.36-2.95L28.36-2.95L28.36-2.95Q28.45-6.38 31.36-6.47L31.36-6.47L31.36-6.47Q34.03-6.42 34.08-2.77L34.08-2.77L29.48-2.77L29.48-2.77Q29.48-0.70 31.31-0.70L31.31-0.70L31.31-0.70Q32.63-0.80 32.95-1.97ZM29.48-3.61L29.48-3.61L33-3.61L33-3.61Q32.86-5.48 31.22-5.48L31.22-5.48L31.22-5.48Q29.67-5.34 29.48-3.61ZM37.64-6.28L37.64-5.39L36.61-5.39L36.61-1.31L36.61-1.31Q36.61-0.80 37.22-0.80L37.22-0.80L37.64-0.80L37.64 0L37.64 0Q37.36 0 36.98 0L36.98 0L36.98 0Q36.89 0 36.84 0L36.84 0L36.84 0Q35.48 0 35.53-1.22L35.53-1.22L35.53-5.39L34.73-5.39L34.73-6.28L35.53-6.28L35.53-8.02L36.61-8.02L36.61-6.28L37.64-6.28ZM40.97-6.28L40.97-5.39L39.94-5.39L39.94-1.31L39.94-1.31Q39.94-0.80 40.55-0.80L40.55-0.80L40.97-0.80L40.97 0L40.97 0Q40.69 0 40.31 0L40.31 0L40.31 0Q40.22 0 40.17 0L40.17 0L40.17 0Q38.81 0 38.86-1.22L38.86-1.22L38.86-5.39L38.06-5.39L38.06-6.28L38.86-6.28L38.86-8.02L39.94-8.02L39.94-6.28L40.97-6.28ZM46.27-1.97L46.27-1.97L47.30-1.97L47.30-1.97Q47.11-0.89 46.17-0.23L46.17-0.23L46.17-0.23Q45.66 0.09 44.48 0.09L44.48 0.09L44.48 0.09Q41.81 0 41.67-2.95L41.67-2.95L41.67-2.95Q41.77-6.38 44.67-6.47L44.67-6.47L44.67-6.47Q47.34-6.42 47.39-2.77L47.39-2.77L42.80-2.77L42.80-2.77Q42.80-0.70 44.63-0.70L44.63-0.70L44.63-0.70Q45.94-0.80 46.27-1.97ZM42.80-3.61L42.80-3.61L46.31-3.61L46.31-3.61Q46.17-5.48 44.53-5.48L44.53-5.48L44.53-5.48Q42.98-5.34 42.80-3.61ZM49.83-3.66L49.83-3.66L49.83 0L48.75 0L48.75-6.28L49.78-6.28L49.78-5.20L49.78-5.20Q50.48-6.47 51.56-6.47L51.56-6.47L51.56-6.47Q51.66-6.47 51.75-6.42L51.75-6.42L51.75-6.42Q51.80-6.42 51.84-6.42L51.84-6.42L51.84-5.30L51.42-5.30L51.42-5.30Q49.92-5.20 49.83-3.66Z" transform="translate(-0.796875, 8.578125)"></path></g></g></g></g> <!----></g></g><mask id="31ef362b9d1bec824fe69b774ac30777"><polyline stroke-width="0" fill-opacity="1" points="0,50.08268737792969 0,0 177.53904724121094,0 197.53904724121094,20 197.53904724121094,70.08268737792969 20,70.08268737792969 0,50.08268737792969" fill="white"></polyline> <g fill-opacity="0" fill="black"><g><rect stroke-width="2" x="0" y="0" width="197.53904724121094" height="70.08268737792969"></rect>   </g> <g transform="translate(15,15)"><g class="tp-name" fill-opacity="1" transform="translate(0,0)"><g><path d="M16.48-15.24L16.48-15.24L16.48-15.24Q15.28-13.28 13.88-11.44L13.88-11.44L13.88-11.44Q12.48-9.60 11-7.92L11-7.92L11-7.92Q12.32-6.80 13.74-5.82L13.74-5.82L13.74-5.82Q15.16-4.84 16.68-4.16L16.68-4.16L16.68-4.16Q17.44-3.80 17.66-3.24L17.66-3.24L17.66-3.24Q17.88-2.68 17.70-2.20L17.70-2.20L17.70-2.20Q17.52-1.72 17.04-1.48L17.04-1.48L17.04-1.48Q16.56-1.24 15.88-1.60L15.88-1.60L15.88-1.60Q14.24-2.40 12.64-3.60L12.64-3.60L12.64-3.60Q11.04-4.80 9.52-6.28L9.52-6.28L9.52-6.28Q7.64-4.28 5.90-2.74L5.90-2.74L5.90-2.74Q4.16-1.20 2.76-0.20L2.76-0.20L2.76-0.20Q2.16 0.24 1.62 0.10L1.62 0.10L1.62 0.10Q1.08-0.04 0.82-0.46L0.82-0.46L0.82-0.46Q0.56-0.88 0.66-1.46L0.66-1.46L0.66-1.46Q0.76-2.04 1.44-2.48L1.44-2.48L1.44-2.48Q3.24-3.64 4.86-5L4.86-5L4.86-5Q6.48-6.36 7.96-7.80L7.96-7.80L7.96-7.80Q5-10.92 2.76-14.16L2.76-14.16L2.76-14.16Q2.40-14.64 2.54-15L2.54-15L2.54-15Q2.68-15.36 3.02-15.52L3.02-15.52L3.02-15.52Q3.36-15.68 3.80-15.58L3.80-15.58L3.80-15.58Q4.24-15.48 4.52-15.04L4.52-15.04L4.52-15.04Q5.20-13.96 6.48-12.44L6.48-12.44L6.48-12.44Q7.76-10.92 9.44-9.32L9.44-9.32L9.44-9.32Q12.44-12.56 14.64-15.84L14.64-15.84L14.64-15.84Q14.92-16.28 15.34-16.38L15.34-16.38L15.34-16.38Q15.76-16.48 16.08-16.34L16.08-16.34L16.08-16.34Q16.40-16.20 16.56-15.90L16.56-15.90L16.56-15.90Q16.72-15.60 16.48-15.24ZM27.44-21.72L27.44-21.72L27.44-21.72Q27.64-21.44 27.88-21.18L27.88-21.18L27.88-21.18Q28.12-20.92 28.16-20.64L28.16-20.64L28.16-20.64Q28.24-20.20 28.12-19.86L28.12-19.86L28.12-19.86Q28-19.52 27.92-19.12L27.92-19.12L27.92-19.12Q27.60-18.92 27.34-18.68L27.34-18.68L27.34-18.68Q27.08-18.44 26.80-18.40L26.80-18.40L26.64-18.36L26.64-18.36Q26.72-17.92 26.52-17.44L26.52-17.44L26.52-17.44Q26.32-16.96 25.96-16.68L25.96-16.68L25.96-16.68Q25.80-16.60 25.62-16.46L25.62-16.46L25.62-16.46Q25.44-16.32 25.20-16.28L25.20-16.28L25.20-16.28Q24.88-16.20 24.66-16.26L24.66-16.26L24.66-16.26Q24.44-16.32 24.20-16.36L24.20-16.36L24.20-16.36Q23.48-16.68 23.20-17.44L23.20-17.44L23.20-17.44Q23.12-17.44 23.08-17.40L23.08-17.40L23.08-17.40Q23.04-17.32 23.04-17.28L23.04-17.28L22.64-17.24L22.64-17.24Q22.16-17.12 21.68-17.30L21.68-17.30L21.68-17.30Q21.20-17.48 20.84-17.84L20.84-17.84L20.84-17.84Q20.52-18.32 20.54-18.96L20.54-18.96L20.54-18.96Q20.56-19.60 20.96-20.12L20.96-20.12L20.96-20.12Q21.00-20.16 21.08-20.20L21.08-20.20L21.08-20.20Q21.20-20.28 21.28-20.32L21.28-20.32L21.28-20.32Q20.76-20.64 20.64-21.32L20.64-21.32L20.64-21.32Q20.52-22.04 20.94-22.64L20.94-22.64L20.94-22.64Q21.36-23.24 22.08-23.40L22.08-23.40L22.08-23.40Q22.76-23.52 23.20-23.20L23.20-23.20L23.20-23.20Q23.40-23.56 23.64-23.74L23.64-23.74L23.64-23.74Q23.88-23.92 24.32-24.08L24.32-24.08L24.32-24.08Q24.72-24.16 25.18-24.12L25.18-24.12L25.18-24.12Q25.64-24.08 26.08-23.72L26.08-23.72L26.08-23.72Q26.36-23.32 26.52-22.94L26.52-22.94L26.52-22.94Q26.68-22.56 26.68-22.04L26.68-22.04L26.52-22L26.52-22Q26.76-21.92 26.96-21.86L26.96-21.86L26.96-21.86Q27.16-21.80 27.44-21.72ZM23.68-15.48L23.68-15.48L23.68-15.48Q23.60-13.36 23.56-11.70L23.56-11.70L23.56-11.70Q23.52-10.04 23.54-8.48L23.54-8.48L23.54-8.48Q23.56-6.92 23.64-5.30L23.64-5.30L23.64-5.30Q23.72-3.68 23.84-1.64L23.84-1.64L23.84-1.64Q23.88-0.84 23.52-0.44L23.52-0.44L23.52-0.44Q23.16-0.04 22.66-0.02L22.66-0.02L22.66-0.02Q22.16 0 21.72-0.38L21.72-0.38L21.72-0.38Q21.28-0.76 21.16-1.56L21.16-1.56L21.16-1.56Q21.00-2.72 21.00-4.48L21.00-4.48L21.00-4.48Q21.00-6.24 21.10-8.18L21.10-8.18L21.10-8.18Q21.20-10.12 21.40-12.06L21.40-12.06L21.40-12.06Q21.60-14 21.84-15.56L21.84-15.56L21.84-15.56Q21.92-16.08 22.22-16.28L22.22-16.28L22.22-16.28Q22.52-16.48 22.86-16.44L22.86-16.44L22.86-16.44Q23.20-16.40 23.44-16.14L23.44-16.14L23.44-16.14Q23.68-15.88 23.68-15.48ZM22.80-18.08L22.80-18.08L22.80-18.08Q22.96-18.08 23.16-18.32L23.16-18.32L23.16-18.32Q23.36-18.56 23.32-18.84L23.32-18.84L23.32-18.84Q23.04-19.04 22.84-19.30L22.84-19.30L22.84-19.30Q22.64-19.56 22.56-20L22.56-20L22.56-20Q22.20-20.16 21.94-19.98L21.94-19.98L21.94-19.98Q21.68-19.80 21.52-19.64L21.52-19.64L21.52-19.64Q21.32-19.40 21.24-19.02L21.24-19.02L21.24-19.02Q21.16-18.64 21.48-18.40L21.48-18.40L21.48-18.40Q21.72-18 22.10-17.96L22.10-17.96L22.10-17.96Q22.48-17.92 22.80-18.08ZM21.48-21.48L21.48-21.48L21.48-21.48Q21.48-21.28 21.60-21.08L21.60-21.08L21.60-21.08Q21.72-20.88 21.88-20.72L21.88-20.72L21.88-20.72Q22.04-20.72 22.24-20.74L22.24-20.74L22.24-20.74Q22.44-20.76 22.68-20.72L22.68-20.72L22.68-20.72Q22.76-21.08 22.98-21.32L22.98-21.32L22.98-21.32Q23.20-21.56 23.48-21.68L23.48-21.68L23.48-21.84L23.48-21.84Q23.40-22.24 23.08-22.46L23.08-22.46L23.08-22.46Q22.76-22.68 22.24-22.60L22.24-22.60L22.24-22.60Q21.80-22.52 21.60-22.20L21.60-22.20L21.60-22.20Q21.40-21.88 21.48-21.48ZM25.40-17.28L25.40-17.28L25.40-17.28Q25.72-17.48 25.78-17.76L25.78-17.76L25.78-17.76Q25.84-18.04 25.80-18.32L25.80-18.32L25.80-18.32Q25.72-18.76 25.24-19.08L25.24-19.08L25.24-19.08Q25.08-18.92 24.88-18.82L24.88-18.82L24.88-18.82Q24.68-18.72 24.48-18.64L24.48-18.64L24.08-18.60L24.08-18.60Q24.12-18.40 24.04-18.24L24.04-18.24L23.80-17.84L23.80-17.84Q23.84-17.64 23.98-17.46L23.98-17.46L23.98-17.46Q24.12-17.28 24.48-17.12L24.48-17.12L24.48-17.12Q24.96-17 25.40-17.28ZM27.28-19.56L27.28-19.56L27.28-19.56Q27.28-19.84 27.36-20L27.36-20L27.36-20Q27.44-20.16 27.36-20.48L27.36-20.48L27.36-20.48Q27.36-20.64 27.24-20.76L27.24-20.76L27.24-20.76Q27.12-20.88 26.96-21.12L26.96-21.12L26.64-21.20L26.64-21.20Q26.48-21.28 26.28-21.24L26.28-21.24L26.28-21.24Q26.12-21.12 26.00-21L26.00-21L26.00-21Q25.88-20.88 25.80-20.72L25.80-20.72L25.80-20.60L25.80-20.60Q25.84-20.36 25.82-20.12L25.82-20.12L25.82-20.12Q25.80-19.88 25.68-19.72L25.68-19.72L25.68-19.72Q25.92-19.56 26.06-19.46L26.06-19.46L26.06-19.46Q26.20-19.36 26.36-19.12L26.36-19.12L26.36-19.12Q26.56-19.08 26.82-19.20L26.82-19.20L26.82-19.20Q27.08-19.32 27.28-19.56ZM24.48-23.28L24.48-23.28L24.48-23.28Q24.00-23.20 23.88-22.72L23.88-22.72L23.88-22.72Q24.00-22.56 24.10-22.38L24.10-22.38L24.10-22.38Q24.20-22.20 24.24-22L24.24-22L24.28-21.84L24.28-21.84Q24.64-21.92 24.88-21.80L24.88-21.80L24.88-21.80Q25.12-21.68 25.36-21.52L25.36-21.52L25.36-21.52Q25.56-21.56 25.70-21.74L25.70-21.74L25.70-21.74Q25.84-21.92 25.80-22.12L25.80-22.12L25.80-22.12Q25.84-22.48 25.78-22.68L25.78-22.68L25.78-22.68Q25.72-22.88 25.48-23.04L25.48-23.04L25.48-23.04Q25.32-23.36 25.04-23.42L25.04-23.42L25.04-23.42Q24.76-23.48 24.48-23.28ZM23.92-19.40L24.32-19.48L24.32-19.48Q25.12-19.64 25.00-20.48L25.00-20.48L25.00-20.48Q24.92-20.72 24.68-20.94L24.68-20.94L24.68-20.94Q24.44-21.16 24.00-21.08L24.00-21.08L24.00-21.08Q23.68-21.04 23.50-20.74L23.50-20.74L23.50-20.74Q23.32-20.44 23.36-20.16L23.36-20.16L23.36-20.16Q23.44-19.72 23.92-19.40L23.92-19.40ZM54.40-1.40L54.40-1.40L54.40-1.40Q54.24-0.64 53.80-0.30L53.80-0.30L53.80-0.30Q53.36 0.04 52.90-0.02L52.90-0.02L52.90-0.02Q52.44-0.08 52.10-0.48L52.10-0.48L52.10-0.48Q51.76-0.88 51.76-1.60L51.76-1.60L51.76-1.60Q51.80-3.24 51.94-5L51.94-5L51.94-5Q52.08-6.76 52.04-8.68L52.04-8.68L52.04-8.68Q52-10.44 51.42-11.80L51.42-11.80L51.42-11.80Q50.84-13.16 49.88-13.82L49.88-13.82L49.88-13.82Q48.92-14.48 47.70-14.28L47.70-14.28L47.70-14.28Q46.48-14.08 45.16-12.72L45.16-12.72L45.16-12.72Q44.96-12.52 44.72-12.04L44.72-12.04L44.72-12.04Q44.48-11.56 44.28-10.98L44.28-10.98L44.28-10.98Q44.08-10.40 43.92-9.76L43.92-9.76L43.92-9.76Q43.76-9.12 43.72-8.60L43.72-8.60L43.72-8.60Q43.64-7.20 43.70-5.82L43.70-5.82L43.70-5.82Q43.76-4.44 43.60-3.36L43.60-3.36L43.60-3.36Q43.52-2.84 43.22-2.56L43.22-2.56L43.22-2.56Q42.92-2.28 42.56-2.24L42.56-2.24L42.56-2.24Q42.20-2.20 41.86-2.48L41.86-2.48L41.86-2.48Q41.52-2.76 41.36-3.36L41.36-3.36L41.36-3.36Q41.16-4.28 41.14-5.58L41.14-5.58L41.14-5.58Q41.12-6.88 41.12-8.68L41.12-8.68L41.12-8.68Q41.12-10.84 40.50-12.22L40.50-12.22L40.50-12.22Q39.88-13.60 38.78-13.98L38.78-13.98L38.78-13.98Q37.68-14.36 36.12-13.60L36.12-13.60L36.12-13.60Q34.56-12.84 32.64-10.68L32.64-10.68L32.64-10.68Q32.72-8.84 32.88-6.64L32.88-6.64L32.88-6.64Q33.04-4.44 33.28-2.08L33.28-2.08L33.28-2.08Q33.36-1.12 32.94-0.56L32.94-0.56L32.94-0.56Q32.52 0 31.96 0.04L31.96 0.04L31.96 0.04Q31.40 0.08 30.90-0.42L30.90-0.42L30.90-0.42Q30.40-0.92 30.36-2.04L30.36-2.04L30.36-2.04Q30.28-4.28 30.22-6.34L30.22-6.34L30.22-6.34Q30.16-8.40 30.20-10.16L30.20-10.16L30.20-10.16Q30.24-11.92 30.38-13.34L30.38-13.34L30.38-13.34Q30.52-14.76 30.80-15.72L30.80-15.72L30.80-15.72Q30.92-16.20 31.26-16.40L31.26-16.40L31.26-16.40Q31.60-16.60 31.94-16.54L31.94-16.54L31.94-16.54Q32.28-16.48 32.52-16.18L32.52-16.18L32.52-16.18Q32.76-15.88 32.72-15.36L32.72-15.36L32.72-15.36Q32.60-14.52 32.60-13.16L32.60-13.16L32.60-13.16Q33.88-14.72 35.36-15.56L35.36-15.56L35.36-15.56Q36.84-16.40 38.24-16.46L38.24-16.46L38.24-16.46Q39.64-16.52 40.88-15.74L40.88-15.74L40.88-15.74Q42.12-14.96 42.92-13.28L42.92-13.28L42.92-13.28Q44.12-14.88 45.44-15.66L45.44-15.66L45.44-15.66Q46.76-16.44 48.04-16.50L48.04-16.50L48.04-16.50Q49.32-16.56 50.48-16L50.48-16L50.48-16Q51.64-15.44 52.54-14.42L52.54-14.42L52.54-14.42Q53.44-13.40 53.98-11.96L53.98-11.96L53.98-11.96Q54.52-10.52 54.60-8.84L54.60-8.84L54.60-8.84Q54.64-7.44 54.66-6.36L54.66-6.36L54.66-6.36Q54.68-5.28 54.68-4.42L54.68-4.42L54.68-4.42Q54.68-3.56 54.60-2.84L54.60-2.84L54.60-2.84Q54.52-2.12 54.40-1.40ZM63.60-18.48L63.60-18.48L63.60-18.48Q64.20-18.80 64.66-18.74L64.66-18.74L64.66-18.74Q65.12-18.68 65.42-18.34L65.42-18.34L65.42-18.34Q65.72-18 65.86-17.56L65.86-17.56L65.86-17.56Q66-17.12 65.88-16.76L65.88-16.76L65.88-16.76Q66.24-16.80 66.60-16.76L66.60-16.76L66.60-16.76Q69.04-16.56 70.92-15.40L70.92-15.40L70.92-15.40Q72.80-14.24 73.86-12.12L73.86-12.12L73.86-12.12Q74.92-10 74.56-7.08L74.56-7.08L74.56-7.08Q73.24-0.88 70.26-0.14L70.26-0.14L70.26-0.14Q67.28 0.60 63.68 0.04L63.68 0.04L63.68 0.04Q61.56-0.36 60.12-1.60L60.12-1.60L60.12-1.60Q58.68-2.84 58.12-4.58L58.12-4.58L58.12-4.58Q57.56-6.32 57.96-8.40L57.96-8.40L57.96-8.40Q58.16-9.52 58.76-10.64L58.76-10.64L58.76-10.64Q58.56-10.60 58.36-10.60L58.36-10.60L58.36-10.60Q57.28-10.76 57.08-11.62L57.08-11.62L57.08-11.62Q56.88-12.48 57.48-13.48L57.48-13.48L57.48-13.48Q57.72-13.92 58.22-14.24L58.22-14.24L58.22-14.24Q58.72-14.56 59.16-14.76L59.16-14.76L59.16-14.76Q59.60-14.96 60.28-15L60.28-15L60.28-15Q60.40-14.96 60.44-14.92L60.44-14.92L60.44-14.92Q60.56-14.88 60.46-14.94L60.46-14.94L60.46-14.94Q60.36-15 60.04-15.20L60.04-15.20L60.04-15.20Q59.24-15.84 59.04-16.58L59.04-16.58L59.04-16.58Q58.84-17.32 59.76-17.68L59.76-17.68L59.76-17.68Q60.08-17.84 60.46-17.66L60.46-17.66L60.46-17.66Q60.84-17.48 61.16-17.16L61.16-17.16L61.16-17.16Q61.52-16.80 61.84-16.36L61.84-16.36L61.84-16.36Q62.12-17.16 62.52-17.66L62.52-17.66L62.52-17.66Q62.92-18.16 63.60-18.48ZM59.96-8.28L59.96-8.28L59.96-8.28Q59.72-6.60 60.26-5.26L60.26-5.26L60.26-5.26Q60.80-3.92 61.94-3.04L61.94-3.04L61.94-3.04Q63.08-2.16 64.52-1.88L64.52-1.88L64.52-1.88Q66.88-1.56 69-2.08L69-2.08L69-2.08Q71.12-2.60 72.04-7.60L72.04-7.60L72.04-7.60Q72.32-9.64 71.60-11.14L71.60-11.14L71.60-11.14Q70.88-12.64 69.54-13.46L69.54-13.46L69.54-13.46Q68.20-14.28 66.44-14.40L66.44-14.40L66.44-14.40Q65.80-14.44 65.12-14.36L65.12-14.36L65.12-14.36Q65.08-14.08 65-13.80L65-13.80L65-13.80Q64.88-13.52 64.60-13.32L64.60-13.32L64.60-13.32Q64.48-13.16 64.16-13.22L64.16-13.22L64.16-13.22Q63.84-13.28 63.52-13.36L63.52-13.36L63.52-13.36Q63.12-13.44 62.80-13.68L62.80-13.68L62.80-13.68Q62.88-13.52 63-13.32L63-13.32L63-13.32Q63.16-12.88 63.20-12.52L63.20-12.52L63.20-12.52Q63.20-12.32 62.98-11.76L62.98-11.76L62.98-11.76Q62.76-11.20 61.80-11.16L61.80-11.16L61.80-11.16Q61.40-11.20 61.20-11.40L61.20-11.40L61.20-11.40Q60.16-9.76 59.96-8.28ZM69.76-9.16L69.76-9.16L69.76-9.16Q70-8.20 69.52-7.88L69.52-7.88L69.52-7.88Q69.24-7.68 68.92-7.74L68.92-7.74L68.92-7.74Q68.60-7.80 68.52-8.08L68.52-8.08L68.52-8.08Q68.28-8.92 68.76-9.32L68.76-9.32L68.76-9.32Q68.92-9.48 69.24-9.42L69.24-9.42L69.24-9.42Q69.56-9.36 69.76-9.16ZM62.88-8.84L62.88-8.84L62.88-8.84Q63-8.16 62.64-7.56L62.64-7.56L62.64-7.56Q62.40-7.44 62.08-7.52L62.08-7.52L62.08-7.52Q61.76-7.60 61.64-8.04L61.64-8.04L61.64-8.04Q61.48-8.28 61.54-8.60L61.54-8.60L61.54-8.60Q61.60-8.92 61.84-9.04L61.84-9.04L61.84-9.04Q62.08-9.24 62.40-9.18L62.40-9.18L62.40-9.18Q62.72-9.12 62.88-8.84ZM68.28-5.72L68.28-5.72L68.28-5.72Q68.48-5.52 68.42-5.20L68.42-5.20L68.42-5.20Q68.36-4.88 68.12-4.68L68.12-4.68L68.12-4.68Q67.88-4.52 67.56-4.58L67.56-4.58L67.56-4.58Q67.24-4.64 67.12-4.88L67.12-4.88L67.12-4.88Q66.88-5.60 67.36-6.12L67.36-6.12L67.36-6.12Q67.56-6.36 67.86-6.26L67.86-6.26L67.86-6.26Q68.16-6.16 68.28-5.72ZM66.36-9.48L66.36-9.48L66.36-9.48Q66.56-9.28 66.50-8.96L66.50-8.96L66.50-8.96Q66.44-8.64 66.20-8.52L66.20-8.52L66.20-8.52Q65.32-8.20 64.92-8.76L64.92-8.76L64.92-8.76Q64.80-8.96 64.88-9.26L64.88-9.26L64.88-9.26Q64.96-9.56 65.40-9.64L65.40-9.64L65.40-9.64Q65.64-9.84 65.94-9.78L65.94-9.78L65.94-9.78Q66.24-9.72 66.36-9.48ZM64.96-6.12L64.96-6.12L64.96-6.12Q65.32-5.80 65.18-5.50L65.18-5.50L65.18-5.50Q65.04-5.20 64.76-5.08L64.76-5.08L64.76-5.08Q64.56-4.88 64.24-4.94L64.24-4.94L64.24-4.94Q63.92-5 63.72-5.28L63.72-5.28L63.72-5.28Q63.60-5.48 63.66-5.78L63.66-5.78L63.66-5.78Q63.72-6.08 63.92-6.32L63.92-6.32L63.92-6.32Q64.20-6.44 64.52-6.38L64.52-6.38L64.52-6.38Q64.84-6.32 64.96-6.12ZM68.72-11.96L68.72-11.96L68.72-11.96Q69.04-11.64 69-11.36L69-11.36L69-11.36Q68.96-11.08 68.52-10.92L68.52-10.92L68.52-10.92Q68.28-10.76 67.96-10.82L67.96-10.82L67.96-10.82Q67.64-10.88 67.52-11.12L67.52-11.12L67.52-11.12Q67.12-11.72 67.72-12.12L67.72-12.12L67.72-12.12Q67.92-12.28 68.24-12.22L68.24-12.22L68.24-12.22Q68.56-12.16 68.72-11.96ZM78.64-14.80L78.64-14.80L78.64-14.80Q79.00-15.64 79.52-15.94L79.52-15.94L79.52-15.94Q80.04-16.24 80.48-16.12L80.48-16.12L80.48-16.12Q80.92-16 81.16-15.54L81.16-15.54L81.16-15.54Q81.40-15.08 81.16-14.48L81.16-14.48L81.16-14.48Q80.40-12.40 80.18-10.40L80.18-10.40L80.18-10.40Q79.96-8.40 80.08-6.96L80.08-6.96L80.08-6.96Q80.28-4.56 81.14-3.42L81.14-3.42L81.14-3.42Q82.00-2.28 83.22-2.20L83.22-2.20L83.22-2.20Q84.44-2.12 85.84-2.98L85.84-2.98L85.84-2.98Q87.24-3.84 88.52-5.44L88.52-5.44L88.52-5.44Q88.44-6.36 88.44-7.54L88.44-7.54L88.44-7.54Q88.44-8.72 88.54-9.98L88.54-9.98L88.54-9.98Q88.64-11.24 88.80-12.44L88.80-12.44L88.80-12.44Q88.96-13.64 89.24-14.60L89.24-14.60L89.24-14.60Q89.48-15.52 90.00-15.90L90.00-15.90L90.00-15.90Q90.52-16.28 91.00-16.18L91.00-16.18L91.00-16.18Q91.48-16.08 91.78-15.58L91.78-15.58L91.78-15.58Q92.08-15.08 91.88-14.24L91.88-14.24L91.88-14.24Q91.68-13.32 91.44-12L91.44-12L91.44-12Q91.20-10.68 91.04-9.28L91.04-9.28L91.04-9.28Q90.88-7.88 90.86-6.50L90.86-6.50L90.86-6.50Q90.84-5.12 91.08-4.06L91.08-4.06L91.08-4.06Q91.32-3 91.88-2.42L91.88-2.42L91.88-2.42Q92.44-1.84 93.44-2L93.44-2L93.44-2Q93.72-2.04 93.92-1.88L93.92-1.88L93.92-1.88Q94.12-1.72 94.20-1.48L94.20-1.48L94.20-1.48Q94.28-1.24 94.20-1.02L94.20-1.02L94.20-1.02Q94.12-0.80 93.84-0.72L93.84-0.72L93.84-0.72Q92.08-0.24 90.92-0.84L90.92-0.84L90.92-0.84Q89.76-1.44 89.08-3.48L89.08-3.48L89.08-3.48Q87.40-1.28 85.46-0.48L85.46-0.48L85.46-0.48Q83.52 0.32 81.84-0.12L81.84-0.12L81.84-0.12Q80.16-0.56 78.96-2.22L78.96-2.22L78.96-2.22Q77.76-3.88 77.60-6.64L77.60-6.64L77.60-6.64Q77.40-9.44 77.78-11.54L77.78-11.54L77.78-11.54Q78.16-13.64 78.64-14.80ZM109.60-0.96L109.60-0.96L109.60-0.96Q108.28-0.56 106.78-0.34L106.78-0.34L106.78-0.34Q105.28-0.12 103.78-0.04L103.78-0.04L103.78-0.04Q102.28 0.04 100.86-0.06L100.86-0.06L100.86-0.06Q99.44-0.16 98.28-0.40L98.28-0.40L98.28-0.40Q96.96-0.68 96.32-1.22L96.32-1.22L96.32-1.22Q95.68-1.76 95.56-2.38L95.56-2.38L95.56-2.38Q95.44-3 95.70-3.62L95.70-3.62L95.70-3.62Q95.96-4.24 96.40-4.68L96.40-4.68L96.40-4.68Q97.52-5.80 98.66-6.68L98.66-6.68L98.66-6.68Q99.80-7.56 101.04-8.42L101.04-8.42L101.04-8.42Q102.28-9.28 103.64-10.22L103.64-10.22L103.64-10.22Q105.00-11.16 106.60-12.40L106.60-12.40L106.60-12.40Q107.04-12.76 107.38-13.10L107.38-13.10L107.38-13.10Q107.72-13.44 107.80-13.68L107.80-13.68L107.80-13.68Q107.88-13.92 107.66-14.06L107.66-14.06L107.66-14.06Q107.44-14.20 106.80-14.12L106.80-14.12L106.80-14.12Q104.64-13.88 102.58-13.74L102.58-13.74L102.58-13.74Q100.52-13.60 98.04-13.88L98.04-13.88L98.04-13.88Q97.48-13.92 97.20-14.20L97.20-14.20L97.20-14.20Q96.92-14.48 96.90-14.78L96.90-14.78L96.90-14.78Q96.88-15.08 97.16-15.32L97.16-15.32L97.16-15.32Q97.44-15.56 98.00-15.56L98.00-15.56L98.00-15.56Q99.36-15.52 100.38-15.58L100.38-15.58L100.38-15.58Q101.40-15.64 102.48-15.76L102.48-15.76L102.48-15.76Q103.56-15.88 104.88-16.06L104.88-16.06L104.88-16.06Q106.20-16.24 108.12-16.40L108.12-16.40L108.12-16.40Q109.44-16.52 110.04-16.06L110.04-16.06L110.04-16.06Q110.64-15.60 110.68-14.84L110.68-14.84L110.68-14.84Q110.72-14.08 110.24-13.18L110.24-13.18L110.24-13.18Q109.76-12.28 108.88-11.48L108.88-11.48L108.88-11.48Q107.52-10.24 105.98-9.14L105.98-9.14L105.98-9.14Q104.44-8.04 103.00-7.12L103.00-7.12L103.00-7.12Q101.56-6.20 100.42-5.42L100.42-5.42L100.42-5.42Q99.28-4.64 98.68-4.04L98.68-4.04L98.68-4.04Q98.08-3.44 98.18-3L98.18-3L98.18-3Q98.28-2.56 99.40-2.32L99.40-2.32L99.40-2.32Q100.48-2.08 101.54-2.06L101.54-2.06L101.54-2.06Q102.60-2.04 103.80-2.20L103.80-2.20L103.80-2.20Q105.00-2.36 106.38-2.70L106.38-2.70L106.38-2.70Q107.76-3.04 109.52-3.48L109.52-3.48L109.52-3.48Q110.44-3.72 110.92-3.46L110.92-3.46L110.92-3.46Q111.40-3.20 111.42-2.74L111.42-2.74L111.42-2.74Q111.44-2.28 110.98-1.76L110.98-1.76L110.98-1.76Q110.52-1.24 109.60-0.96ZM129.68-1.36L129.68-1.36L129.68-1.36Q129.56-0.60 129.16-0.26L129.16-0.26L129.16-0.26Q128.76 0.08 128.34 0.02L128.34 0.02L128.34 0.02Q127.92-0.04 127.60-0.44L127.60-0.44L127.60-0.44Q127.28-0.84 127.28-1.56L127.28-1.56L127.28-1.56Q127.32-3.20 127.32-4.96L127.32-4.96L127.32-8.68L127.32-8.68Q127.32-10.68 126.50-12.16L126.50-12.16L126.50-12.16Q125.68-13.64 124.34-14.08L124.34-14.08L124.34-14.08Q123.00-14.52 121.24-13.66L121.24-13.66L121.24-13.66Q119.48-12.80 117.60-10.16L117.60-10.16L117.52-10.08L117.52-10.08Q117.44-5.68 117.76-1.76L117.76-1.76L117.76-1.76Q117.80-0.80 117.44-0.40L117.44-0.40L117.44-0.40Q117.08 0 116.58-0.04L116.58-0.04L116.58-0.04Q116.08-0.08 115.64-0.52L115.64-0.52L115.64-0.52Q115.20-0.96 115.12-1.72L115.12-1.72L115.12-1.72Q114.80-4.84 114.86-8.22L114.86-8.22L114.86-8.22Q114.92-11.60 115.16-14.60L115.16-14.60L115.16-14.60Q115.40-17.60 115.76-19.90L115.76-19.90L115.76-19.90Q116.12-22.20 116.40-23.16L116.40-23.16L116.40-23.16Q116.52-23.64 116.86-23.84L116.86-23.84L116.86-23.84Q117.20-24.04 117.54-24L117.54-24L117.54-24Q117.88-23.96 118.12-23.70L118.12-23.70L118.12-23.70Q118.36-23.44 118.32-23L118.32-23L118.32-23Q117.80-17.84 117.60-12.84L117.60-12.84L117.60-12.84Q118.88-14.56 120.26-15.42L120.26-15.42L120.26-15.42Q121.64-16.28 122.98-16.42L122.98-16.42L122.98-16.42Q124.32-16.56 125.54-16.06L125.54-16.06L125.54-16.06Q126.76-15.56 127.68-14.56L127.68-14.56L127.68-14.56Q128.60-13.56 129.18-12.08L129.18-12.08L129.18-12.08Q129.76-10.60 129.80-8.84L129.80-8.84L129.80-8.84Q129.84-7.44 129.88-6.36L129.88-6.36L129.88-6.36Q129.92-5.28 129.92-4.40L129.92-4.40L129.92-4.40Q129.92-3.52 129.86-2.80L129.86-2.80L129.86-2.80Q129.80-2.08 129.68-1.36ZM149.04-1.68L149.04-1.68L149.04-1.68Q149.32-1.76 149.52-1.62L149.52-1.62L149.52-1.62Q149.72-1.48 149.78-1.26L149.78-1.26L149.78-1.26Q149.84-1.04 149.76-0.78L149.76-0.78L149.76-0.78Q149.68-0.52 149.44-0.40L149.44-0.40L149.44-0.40Q148.72-0.04 147.94 0L147.94 0L147.94 0Q147.16 0.04 146.42-0.20L146.42-0.20L146.42-0.20Q145.68-0.44 145.08-0.96L145.08-0.96L145.08-0.96Q144.48-1.48 144.12-2.28L144.12-2.28L144.12-2.28Q143.16-1.32 142.00-0.72L142.00-0.72L142.00-0.72Q140.84-0.12 139.66 0.06L139.66 0.06L139.66 0.06Q138.48 0.24 137.36 0.02L137.36 0.02L137.36 0.02Q136.24-0.20 135.36-0.88L135.36-0.88L135.36-0.88Q134.08-1.80 133.36-3.34L133.36-3.34L133.36-3.34Q132.64-4.88 132.56-6.72L132.56-6.72L132.56-6.72Q132.48-8.56 133.12-10.48L133.12-10.48L133.12-10.48Q133.76-12.40 135.24-14.12L135.24-14.12L135.24-14.12Q136.60-15.68 138.36-16.34L138.36-16.34L138.36-16.34Q140.12-17 141.88-16.82L141.88-16.82L141.88-16.82Q143.64-16.64 145.20-15.62L145.20-15.62L145.20-15.62Q146.76-14.60 147.72-12.88L147.72-12.88L147.72-12.88Q148.12-12.12 148.00-11.60L148.00-11.60L148.00-11.60Q147.88-11.08 147.46-10.86L147.46-10.86L147.46-10.86Q147.04-10.64 146.50-10.76L146.50-10.76L146.50-10.76Q145.96-10.88 145.60-11.48L145.60-11.48L145.60-11.48Q144.80-12.68 143.84-13.46L143.84-13.46L143.84-13.46Q142.88-14.24 141.76-14.44L141.76-14.44L141.76-14.44Q140.64-14.64 139.46-14.24L139.46-14.24L139.46-14.24Q138.28-13.84 137.08-12.68L137.08-12.68L137.08-12.68Q135.96-11.60 135.40-10.10L135.40-10.10L135.40-10.10Q134.84-8.60 134.80-7.12L134.80-7.12L134.80-7.12Q134.76-5.64 135.22-4.36L135.22-4.36L135.22-4.36Q135.68-3.08 136.60-2.48L136.60-2.48L136.60-2.48Q137.36-1.96 138.36-1.90L138.36-1.90L138.36-1.90Q139.36-1.84 140.38-2.26L140.38-2.26L140.38-2.26Q141.40-2.68 142.32-3.58L142.32-3.58L142.32-3.58Q143.24-4.48 143.92-5.88L143.92-5.88L143.92-5.88Q144.12-6.72 144.52-7.60L144.52-7.60L144.56-7.72L144.56-7.72Q144.72-8.36 145.10-8.60L145.10-8.60L145.10-8.60Q145.48-8.84 145.88-8.76L145.88-8.76L145.88-8.76Q146.28-8.68 146.56-8.32L146.56-8.32L146.56-8.32Q146.84-7.96 146.76-7.40L146.76-7.40L146.76-7.28L146.76-7.28Q146.60-6.56 146.32-5.80L146.32-5.80L146.32-5.80Q146.00-4.40 146.18-3.50L146.18-3.50L146.18-3.50Q146.36-2.60 146.78-2.12L146.78-2.12L146.78-2.12Q147.20-1.64 147.82-1.54L147.82-1.54L147.82-1.54Q148.44-1.44 149.04-1.68ZM157.12-18.48L157.12-18.48L157.12-18.48Q157.72-18.80 158.18-18.74L158.18-18.74L158.18-18.74Q158.64-18.68 158.94-18.34L158.94-18.34L158.94-18.34Q159.24-18 159.38-17.56L159.38-17.56L159.38-17.56Q159.52-17.12 159.40-16.76L159.40-16.76L159.40-16.76Q159.76-16.80 160.12-16.76L160.12-16.76L160.12-16.76Q162.56-16.56 164.44-15.40L164.44-15.40L164.44-15.40Q166.32-14.24 167.38-12.12L167.38-12.12L167.38-12.12Q168.44-10 168.08-7.08L168.08-7.08L168.08-7.08Q166.76-0.88 163.78-0.14L163.78-0.14L163.78-0.14Q160.80 0.60 157.20 0.04L157.20 0.04L157.20 0.04Q155.08-0.36 153.64-1.60L153.64-1.60L153.64-1.60Q152.20-2.84 151.64-4.58L151.64-4.58L151.64-4.58Q151.08-6.32 151.48-8.40L151.48-8.40L151.48-8.40Q151.68-9.52 152.28-10.64L152.28-10.64L152.28-10.64Q152.08-10.60 151.88-10.60L151.88-10.60L151.88-10.60Q150.80-10.76 150.60-11.62L150.60-11.62L150.60-11.62Q150.40-12.48 151.00-13.48L151.00-13.48L151.00-13.48Q151.24-13.92 151.74-14.24L151.74-14.24L151.74-14.24Q152.24-14.56 152.68-14.76L152.68-14.76L152.68-14.76Q153.12-14.96 153.80-15L153.80-15L153.80-15Q153.92-14.96 153.96-14.92L153.96-14.92L153.96-14.92Q154.08-14.88 153.98-14.94L153.98-14.94L153.98-14.94Q153.88-15 153.56-15.20L153.56-15.20L153.56-15.20Q152.76-15.84 152.56-16.58L152.56-16.58L152.56-16.58Q152.36-17.32 153.28-17.68L153.28-17.68L153.28-17.68Q153.60-17.84 153.98-17.66L153.98-17.66L153.98-17.66Q154.36-17.48 154.68-17.16L154.68-17.16L154.68-17.16Q155.04-16.80 155.36-16.36L155.36-16.36L155.36-16.36Q155.64-17.16 156.04-17.66L156.04-17.66L156.04-17.66Q156.44-18.16 157.12-18.48ZM153.48-8.28L153.48-8.28L153.48-8.28Q153.24-6.60 153.78-5.26L153.78-5.26L153.78-5.26Q154.32-3.92 155.46-3.04L155.46-3.04L155.46-3.04Q156.60-2.16 158.04-1.88L158.04-1.88L158.04-1.88Q160.40-1.56 162.52-2.08L162.52-2.08L162.52-2.08Q164.64-2.60 165.56-7.60L165.56-7.60L165.56-7.60Q165.84-9.64 165.12-11.14L165.12-11.14L165.12-11.14Q164.40-12.64 163.06-13.46L163.06-13.46L163.06-13.46Q161.72-14.28 159.96-14.40L159.96-14.40L159.96-14.40Q159.32-14.44 158.64-14.36L158.64-14.36L158.64-14.36Q158.60-14.08 158.52-13.80L158.52-13.80L158.52-13.80Q158.40-13.52 158.12-13.32L158.12-13.32L158.12-13.32Q158.00-13.16 157.68-13.22L157.68-13.22L157.68-13.22Q157.36-13.28 157.04-13.36L157.04-13.36L157.04-13.36Q156.64-13.44 156.32-13.68L156.32-13.68L156.32-13.68Q156.40-13.52 156.52-13.32L156.52-13.32L156.52-13.32Q156.68-12.88 156.72-12.52L156.72-12.52L156.72-12.52Q156.72-12.32 156.50-11.76L156.50-11.76L156.50-11.76Q156.28-11.20 155.32-11.16L155.32-11.16L155.32-11.16Q154.92-11.20 154.72-11.40L154.72-11.40L154.72-11.40Q153.68-9.76 153.48-8.28ZM163.28-9.16L163.28-9.16L163.28-9.16Q163.52-8.20 163.04-7.88L163.04-7.88L163.04-7.88Q162.76-7.68 162.44-7.74L162.44-7.74L162.44-7.74Q162.12-7.80 162.04-8.08L162.04-8.08L162.04-8.08Q161.80-8.92 162.28-9.32L162.28-9.32L162.28-9.32Q162.44-9.48 162.76-9.42L162.76-9.42L162.76-9.42Q163.08-9.36 163.28-9.16ZM156.40-8.84L156.40-8.84L156.40-8.84Q156.52-8.16 156.16-7.56L156.16-7.56L156.16-7.56Q155.92-7.44 155.60-7.52L155.60-7.52L155.60-7.52Q155.28-7.60 155.16-8.04L155.16-8.04L155.16-8.04Q155.00-8.28 155.06-8.60L155.06-8.60L155.06-8.60Q155.12-8.92 155.36-9.04L155.36-9.04L155.36-9.04Q155.60-9.24 155.92-9.18L155.92-9.18L155.92-9.18Q156.24-9.12 156.40-8.84ZM161.80-5.72L161.80-5.72L161.80-5.72Q162.00-5.52 161.94-5.20L161.94-5.20L161.94-5.20Q161.88-4.88 161.64-4.68L161.64-4.68L161.64-4.68Q161.40-4.52 161.08-4.58L161.08-4.58L161.08-4.58Q160.76-4.64 160.64-4.88L160.64-4.88L160.64-4.88Q160.40-5.60 160.88-6.12L160.88-6.12L160.88-6.12Q161.08-6.36 161.38-6.26L161.38-6.26L161.38-6.26Q161.68-6.16 161.80-5.72ZM159.88-9.48L159.88-9.48L159.88-9.48Q160.08-9.28 160.02-8.96L160.02-8.96L160.02-8.96Q159.96-8.64 159.72-8.52L159.72-8.52L159.72-8.52Q158.84-8.20 158.44-8.76L158.44-8.76L158.44-8.76Q158.32-8.96 158.40-9.26L158.40-9.26L158.40-9.26Q158.48-9.56 158.92-9.64L158.92-9.64L158.92-9.64Q159.16-9.84 159.46-9.78L159.46-9.78L159.46-9.78Q159.76-9.72 159.88-9.48ZM158.48-6.12L158.48-6.12L158.48-6.12Q158.84-5.80 158.70-5.50L158.70-5.50L158.70-5.50Q158.56-5.20 158.28-5.08L158.28-5.08L158.28-5.08Q158.08-4.88 157.76-4.94L157.76-4.94L157.76-4.94Q157.44-5 157.24-5.28L157.24-5.28L157.24-5.28Q157.12-5.48 157.18-5.78L157.18-5.78L157.18-5.78Q157.24-6.08 157.44-6.32L157.44-6.32L157.44-6.32Q157.72-6.44 158.04-6.38L158.04-6.38L158.04-6.38Q158.36-6.32 158.48-6.12ZM162.24-11.96L162.24-11.96L162.24-11.96Q162.56-11.64 162.52-11.36L162.52-11.36L162.52-11.36Q162.48-11.08 162.04-10.92L162.04-10.92L162.04-10.92Q161.80-10.76 161.48-10.82L161.48-10.82L161.48-10.82Q161.16-10.88 161.04-11.12L161.04-11.12L161.04-11.12Q160.64-11.72 161.24-12.12L161.24-12.12L161.24-12.12Q161.44-12.28 161.76-12.22L161.76-12.22L161.76-12.22Q162.08-12.16 162.24-11.96Z" transform="translate(-0.6325, 24.133333320618)"></path></g>       </g> <g class="tp-slogan" fill-opacity="1" transform="translate(58.2495231628418,31.41456413269043)">   <g><path d="M0.80-8.58L1.88-8.58L1.88 0L0.80 0L0.80-8.58ZM3.42-6.28L4.50-6.28L4.50 0L3.42 0L3.42-6.28ZM4.50-8.58L4.50-7.41L3.42-7.41L3.42-8.58L4.50-8.58ZM8.16-1.13L8.20-1.13L9.98-6.28L11.11-6.28L8.77 0L7.64 0L5.34-6.28L6.56-6.28L8.16-1.13ZM16.31-1.97L16.31-1.97L17.34-1.97L17.34-1.97Q17.16-0.89 16.22-0.23L16.22-0.23L16.22-0.23Q15.70 0.09 14.53 0.09L14.53 0.09L14.53 0.09Q11.86 0 11.72-2.95L11.72-2.95L11.72-2.95Q11.81-6.38 14.72-6.47L14.72-6.47L14.72-6.47Q17.39-6.42 17.44-2.77L17.44-2.77L12.84-2.77L12.84-2.77Q12.84-0.70 14.67-0.70L14.67-0.70L14.67-0.70Q15.98-0.80 16.31-1.97ZM12.84-3.61L12.84-3.61L16.36-3.61L16.36-3.61Q16.22-5.48 14.58-5.48L14.58-5.48L14.58-5.48Q13.03-5.34 12.84-3.61ZM22.92-0.75L22.92 0L21.94 0L21.94-8.58L22.97-8.58L22.97-5.48L23.02-5.48L23.02-5.48Q23.58-6.42 24.80-6.47L24.80-6.47L24.80-6.47Q27.28-6.33 27.42-3.33L27.42-3.33L27.42-3.33Q27.28 0 24.66 0.09L24.66 0.09L24.66 0.09Q23.48 0.09 22.97-0.75L22.97-0.75L22.92-0.75ZM26.34-3.14L26.34-3.14L26.34-3.14Q26.39-5.48 24.61-5.48L24.61-5.48L24.61-5.48Q22.92-5.48 22.92-2.81L22.92-2.81L22.92-2.81Q22.97-0.84 24.66-0.70L24.66-0.70L24.66-0.70Q26.30-0.75 26.34-3.14ZM32.95-1.97L32.95-1.97L33.98-1.97L33.98-1.97Q33.80-0.89 32.86-0.23L32.86-0.23L32.86-0.23Q32.34 0.09 31.17 0.09L31.17 0.09L31.17 0.09Q28.50 0 28.36-2.95L28.36-2.95L28.36-2.95Q28.45-6.38 31.36-6.47L31.36-6.47L31.36-6.47Q34.03-6.42 34.08-2.77L34.08-2.77L29.48-2.77L29.48-2.77Q29.48-0.70 31.31-0.70L31.31-0.70L31.31-0.70Q32.63-0.80 32.95-1.97ZM29.48-3.61L29.48-3.61L33-3.61L33-3.61Q32.86-5.48 31.22-5.48L31.22-5.48L31.22-5.48Q29.67-5.34 29.48-3.61ZM37.64-6.28L37.64-5.39L36.61-5.39L36.61-1.31L36.61-1.31Q36.61-0.80 37.22-0.80L37.22-0.80L37.64-0.80L37.64 0L37.64 0Q37.36 0 36.98 0L36.98 0L36.98 0Q36.89 0 36.84 0L36.84 0L36.84 0Q35.48 0 35.53-1.22L35.53-1.22L35.53-5.39L34.73-5.39L34.73-6.28L35.53-6.28L35.53-8.02L36.61-8.02L36.61-6.28L37.64-6.28ZM40.97-6.28L40.97-5.39L39.94-5.39L39.94-1.31L39.94-1.31Q39.94-0.80 40.55-0.80L40.55-0.80L40.97-0.80L40.97 0L40.97 0Q40.69 0 40.31 0L40.31 0L40.31 0Q40.22 0 40.17 0L40.17 0L40.17 0Q38.81 0 38.86-1.22L38.86-1.22L38.86-5.39L38.06-5.39L38.06-6.28L38.86-6.28L38.86-8.02L39.94-8.02L39.94-6.28L40.97-6.28ZM46.27-1.97L46.27-1.97L47.30-1.97L47.30-1.97Q47.11-0.89 46.17-0.23L46.17-0.23L46.17-0.23Q45.66 0.09 44.48 0.09L44.48 0.09L44.48 0.09Q41.81 0 41.67-2.95L41.67-2.95L41.67-2.95Q41.77-6.38 44.67-6.47L44.67-6.47L44.67-6.47Q47.34-6.42 47.39-2.77L47.39-2.77L42.80-2.77L42.80-2.77Q42.80-0.70 44.63-0.70L44.63-0.70L44.63-0.70Q45.94-0.80 46.27-1.97ZM42.80-3.61L42.80-3.61L46.31-3.61L46.31-3.61Q46.17-5.48 44.53-5.48L44.53-5.48L44.53-5.48Q42.98-5.34 42.80-3.61ZM49.83-3.66L49.83-3.66L49.83 0L48.75 0L48.75-6.28L49.78-6.28L49.78-5.20L49.78-5.20Q50.48-6.47 51.56-6.47L51.56-6.47L51.56-6.47Q51.66-6.47 51.75-6.42L51.75-6.42L51.75-6.42Q51.80-6.42 51.84-6.42L51.84-6.42L51.84-5.30L51.42-5.30L51.42-5.30Q49.92-5.20 49.83-3.66Z" transform="translate(-0.796875, 8.578125)"></path></g></g></g></g></mask></svg>