<svg xmlns="http://www.w3.org/2000/svg" xmlns:xlink="http://www.w3.org/1999/xlink" width="100%" height="100%" viewBox="0 0 340.000000 250.000000" preserveAspectRatio="xMidYMid meet" color-interpolation-filters="sRGB" class="el-tooltip" style="margin: auto;">  <g data-v-73fdaaa2="" fill="#02a388" class="bordersvg" transform="translate(95.2303237915039,80.82789611816406)"><path fill-opacity="0" stroke="#02a388" stroke-width="3" d="M 78.34420776367188 20.07918930053711 A 44.17210388183594 44.17210388183594 0 1 0 78.34420776367188 68.26501846313477"></path> <g transform="translate(10,20.07918930053711)"><rect stroke-width="2" x="0" y="0" width="136.68842315673828" height="48.185829162597656" fill-opacity="0"></rect> <!----> <!----> <g transform="translate(10,3)"><g class="tp-name" transform="translate(0,0)"><g><path transform="translate(-1.1328125,26.232096329331)" d="M1.95-19.39L1.95-19.39L1.95-19.39Q1.88-20.86 1.87-21.45L1.87-21.45L1.87-21.45Q1.86-22.03 1.87-22.91L1.87-22.91L1.87-22.91Q1.88-23.79 1.76-24.54L1.76-24.54L1.76-24.54Q1.64-25.29 1.80-25.57L1.80-25.57L1.80-25.57Q1.93-25.82 2.27-25.98L2.27-25.98L2.27-25.98Q2.60-26.13 2.83-26.19L2.83-26.19L2.83-26.19Q3.38-26.29 3.66-26.15L3.66-26.15L3.66-26.15Q3.95-26.02 4.65-25.55L4.65-25.55L5.49-25.02L5.49-25.02Q5.86-24.75 5.94-24.55L5.94-24.55L5.94-24.55Q6.02-24.36 6.03-24.21L6.03-24.21L6.03-24.21Q6.04-24.06 5.98-23.93L5.98-23.93L5.47-23.20L5.47-23.20Q5.41-23.11 5.25-22.74L5.25-22.74L5.25-22.74Q5.10-22.38 4.96-21.34L4.96-21.34L4.96-21.34Q4.82-20.29 4.82-18.96L4.82-18.96L4.80-17.23L4.73-15.35L4.73-15.35Q4.73-14.79 4.79-14.11L4.79-14.11L4.79-14.11Q4.86-13.44 5.08-13.27L5.08-13.27L5.08-13.27Q5.29-13.11 5.86-13.30L5.86-13.30L5.86-13.30Q6.05-13.36 6.41-13.57L6.41-13.57L6.41-13.57Q6.76-13.79 7.36-14.57L7.36-14.57L7.36-14.57Q7.97-15.35 8.25-15.72L8.25-15.72L8.25-15.72Q8.54-16.09 9.02-16.93L9.02-16.93L9.02-16.93Q9.51-17.77 9.73-18.37L9.73-18.37L9.73-18.37Q9.94-18.96 9.95-19.65L9.95-19.65L9.95-19.65Q9.96-20.33 10.07-20.44L10.07-20.44L10.07-20.44Q10.18-20.55 10.47-20.64L10.47-20.64L10.47-20.64Q10.76-20.74 11.76-20.25L11.76-20.25L11.76-20.25Q12.52-19.86 13.15-19.35L13.15-19.35L13.15-19.35Q13.79-18.83 13.55-18.14L13.55-18.14L12.91-17.38L12.40-16.54L12.40-16.54Q12.36-16.48 11.88-15.93L11.88-15.93L11.88-15.93Q11.39-15.37 11.00-14.80L11.00-14.80L11.00-14.80Q10.61-14.24 10.21-13.67L10.21-13.67L10.21-13.67Q9.80-13.11 9.64-12.77L9.64-12.77L9.64-12.77Q9.47-12.44 9.46-12.16L9.46-12.16L9.46-12.16Q9.45-11.88 9.92-11.23L9.92-11.23L11.41-9.04L12.34-7.95L13.77-6.23L15.29-5.08L15.29-5.08Q15.43-4.96 16.32-4.45L16.32-4.45L16.32-4.45Q17.21-3.95 17.83-3.54L17.83-3.54L17.83-3.54Q18.46-3.13 18.90-2.58L18.90-2.58L18.90-2.58Q19.34-2.03 19.13-1.68L19.13-1.68L19.13-1.68Q18.93-1.33 18.66-1.28L18.66-1.28L18.66-1.28Q18.40-1.23 17.60-1.25L17.60-1.25L16.25-1.19L13.75-1.52L13.75-1.52Q13.26-1.56 12.82-1.58L12.82-1.58L12.82-1.58Q12.38-1.60 12.14-1.74L12.14-1.74L12.14-1.74Q11.89-1.88 11.66-2.90L11.66-2.90L11.66-2.90Q11.43-3.93 11.24-4.54L11.24-4.54L11.24-4.54Q11.05-5.16 10.39-6.05L10.39-6.05L10.02-6.52L10.02-6.52Q7.68-9.49 7.42-9.69L7.42-9.69L7.42-9.69Q7.17-9.88 6.57-10.16L6.57-10.16L6.57-10.16Q5.98-10.43 5.48-10.39L5.48-10.39L5.48-10.39Q4.98-10.35 4.67-10.04L4.67-10.04L4.67-10.04Q4.36-9.73 4.40-8.66L4.40-8.66L4.40-8.66Q4.45-7.60 4.41-6.76L4.41-6.76L4.41-6.76Q4.38-5.92 4.45-5.14L4.45-5.14L4.45-5.14Q4.45-4.90 4.49-4.75L4.49-4.75L4.63-3.69L4.63-3.69Q4.65-3.36 4.69-3.26L4.69-3.26L4.92-2.62L4.92-2.62Q4.92-2.34 4.69-2.11L4.69-2.11L4.69-2.11Q4.63-2.05 4.07-1.64L4.07-1.64L4.07-1.64Q3.52-1.23 3.48-1.23L3.48-1.23L2.71-1.05L2.71-1.05Q2.27-0.92 2.09-0.91L2.09-0.91L2.09-0.91Q1.91-0.90 1.52-1.31L1.52-1.31L1.52-1.31Q1.13-1.72 1.13-3.28L1.13-3.28L1.13-3.28Q1.13-4.80 1.17-5.11L1.17-5.11L1.17-5.11Q1.21-5.41 1.33-6.07L1.33-6.07L1.33-6.07Q1.45-6.74 1.52-7.43L1.52-7.43L1.52-7.43Q1.60-8.13 1.66-8.83L1.66-8.83L1.66-8.83Q1.72-9.53 1.78-12.37L1.78-12.37L1.78-12.37Q1.84-15.21 1.86-15.23L1.86-15.23L1.91-17.15L1.95-19.39ZM36.00-8.83L36.00-8.83L36.00-8.83Q35.90-6.84 35.91-5.81L35.91-5.81L35.91-5.81Q35.92-4.79 36.00-3.80L36.00-3.80L36.00-3.80Q36.07-2.81 36.07-2.50L36.07-2.50L36.07-2.50Q36.05-1.66 35.81-1.39L35.81-1.39L35.81-1.39Q35.57-1.11 34.84-0.91L34.84-0.91L34.84-0.91Q34.12-0.70 33.63-0.76L33.63-0.76L33.63-0.76Q33.38-0.78 33.23-0.86L33.23-0.86L33.23-0.86Q33.09-0.94 32.84-1.27L32.84-1.27L32.84-1.27Q32.60-1.60 32.64-2.29L32.64-2.29L32.75-4.80L32.97-9.38L32.97-9.38Q32.83-10.94 32.81-11.74L32.81-11.74L32.73-13.44L32.73-13.44Q32.68-14.22 32.52-14.63L32.52-14.63L32.52-14.63Q32.36-15.04 31.88-15.52L31.88-15.52L31.88-15.52Q31.41-16.00 30.83-16.14L30.83-16.14L30.83-16.14Q30.25-16.29 29.80-16.11L29.80-16.11L29.80-16.11Q29.36-15.94 28.71-15.54L28.71-15.54L28.71-15.54Q28.07-15.14 27.76-14.71L27.76-14.71L27.76-14.71Q27.46-14.28 27.34-13.62L27.34-13.62L27.34-13.62Q27.23-12.97 27.12-11.75L27.12-11.75L27.12-11.75Q27.01-10.53 26.97-10.02L26.97-10.02L26.80-8.42L26.80-8.42Q26.76-7.50 26.73-6.89L26.73-6.89L26.73-6.89Q26.70-6.29 26.69-5.83L26.69-5.83L26.69-5.83Q26.68-5.37 26.74-5.02L26.74-5.02L26.89-4.10L26.89-4.10Q26.89-4.06 26.97-3.18L26.97-3.18L26.97-3.18Q27.05-2.30 27.05-2.13L27.05-2.13L27.05-2.13Q27.03-1.78 26.89-1.54L26.89-1.54L26.89-1.54Q26.76-1.31 26.19-1.00L26.19-1.00L26.19-1.00Q25.63-0.68 24.51-0.76L24.51-0.76L24.51-0.76Q24.24-0.76 24.10-0.83L24.10-0.83L24.10-0.83Q23.96-0.90 23.72-1.27L23.72-1.27L23.72-1.27Q23.48-1.64 23.52-2.29L23.52-2.29L23.63-4.80L23.89-8.83L23.95-11.05L24.10-13.61L24.10-13.61Q24.08-14.45 23.89-14.84L23.89-14.84L23.89-14.84Q23.69-15.23 23.52-15.40L23.52-15.40L23.52-15.40Q23.34-15.57 23.24-15.61L23.24-15.61L22.34-15.29L22.34-15.29Q22.17-15.29 21.92-15.53L21.92-15.53L21.92-15.53Q21.68-15.76 21.51-16.26L21.51-16.26L21.51-16.26Q21.35-16.76 21.41-17.30L21.41-17.30L21.41-17.30Q21.43-17.56 21.51-17.69L21.51-17.69L21.51-17.69Q21.60-17.81 22.02-17.99L22.02-17.99L22.02-17.99Q22.44-18.16 23.21-18.76L23.21-18.76L23.21-18.76Q23.98-19.36 24.55-19.41L24.55-19.41L24.55-19.41Q24.88-19.43 25.26-19.30L25.26-19.30L25.26-19.30Q25.64-19.16 26.02-18.69L26.02-18.69L26.80-17.73L26.80-17.73Q27.54-18.50 27.94-18.78L27.94-18.78L27.94-18.78Q28.34-19.06 28.96-19.36L28.96-19.36L28.96-19.36Q29.59-19.65 30.57-19.73L30.57-19.73L30.57-19.73Q31.88-19.80 33.06-19.30L33.06-19.30L33.06-19.30Q34.24-18.79 34.90-18.04L34.90-18.04L34.90-18.04Q35.57-17.29 35.82-16.49L35.82-16.49L35.82-16.49Q36.07-15.70 36.13-14.63L36.13-14.63L36.13-14.63Q36.17-13.57 36.13-12.44L36.13-12.44L36.00-8.83ZM45.78-19.28L45.78-19.28L45.78-19.28Q46.70-19.26 47.71-18.98L47.71-18.98L47.71-18.98Q48.71-18.71 49.50-18.16L49.50-18.16L49.50-18.16Q50.29-17.62 50.79-16.85L50.79-16.85L50.79-16.85Q51.29-16.07 51.65-14.98L51.65-14.98L51.65-14.98Q52.01-13.89 52.11-12.75L52.11-12.75L52.11-12.75Q52.21-11.62 52.13-10.35L52.13-10.35L52.13-10.35Q52.03-9.10 51.82-7.99L51.82-7.99L51.82-7.99Q51.60-6.88 51.37-6.12L51.37-6.12L51.37-6.12Q51.13-5.37 50.82-4.68L50.82-4.68L50.82-4.68Q50.51-3.98 50.12-3.44L50.12-3.44L50.12-3.44Q49.73-2.89 49.04-2.23L49.04-2.23L49.04-2.23Q48.36-1.56 47.94-1.36L47.94-1.36L47.94-1.36Q47.52-1.15 46.89-0.99L46.89-0.99L46.89-0.99Q46.27-0.82 45.88-0.78L45.88-0.78L45.88-0.78Q45.49-0.74 44.98-0.80L44.98-0.80L44.98-0.80Q44.22-0.86 43.43-1.07L43.43-1.07L43.43-1.07Q42.64-1.29 42.04-1.63L42.04-1.63L42.04-1.63Q41.45-1.97 40.95-2.38L40.95-2.38L40.95-2.38Q40.45-2.79 40.15-3.13L40.15-3.13L40.15-3.13Q39.84-3.48 39.57-4.30L39.57-4.30L39.57-4.30Q39.30-5.12 39.11-5.87L39.11-5.87L39.11-5.87Q38.93-6.62 38.81-7.64L38.81-7.64L38.81-7.64Q38.69-8.65 38.69-9.86L38.69-9.86L38.69-9.86Q38.69-10.41 38.72-10.92L38.72-10.92L38.72-10.92Q38.75-11.43 38.81-12.06L38.81-12.06L38.81-12.06Q38.87-12.70 39.04-13.20L39.04-13.20L39.22-13.69L39.47-14.71L39.47-14.71Q39.51-14.82 39.92-15.43L39.92-15.43L40.64-16.66L40.64-16.66Q41.02-17.25 41.53-17.71L41.53-17.71L41.53-17.71Q42.05-18.18 42.69-18.54L42.69-18.54L42.69-18.54Q43.32-18.91 44.13-19.09L44.13-19.09L44.13-19.09Q44.94-19.28 45.78-19.28ZM45.90-15.66L45.90-15.66L45.90-15.66Q45.20-15.68 44.65-15.47L44.65-15.47L44.65-15.47Q44.10-15.25 43.70-14.83L43.70-14.83L43.70-14.83Q43.30-14.41 42.97-13.83L42.97-13.83L42.97-13.83Q42.64-13.24 42.53-12.86L42.53-12.86L42.53-12.86Q42.42-12.48 42.34-12.05L42.34-12.05L42.19-11.15L42.19-11.15Q42.03-10.29 42.00-9.90L42.00-9.90L42.00-9.90Q41.97-9.51 42.03-8.91L42.03-8.91L42.03-8.91Q42.05-8.55 42.17-7.70L42.17-7.70L42.17-7.70Q42.29-6.84 42.49-6.29L42.49-6.29L42.49-6.29Q42.70-5.74 43.21-5.18L43.21-5.18L43.21-5.18Q43.73-4.61 44.19-4.38L44.19-4.38L44.19-4.38Q44.65-4.16 45.31-4.20L45.31-4.20L45.31-4.20Q46.04-4.22 46.58-4.55L46.58-4.55L46.58-4.55Q47.13-4.88 47.47-5.39L47.47-5.39L47.47-5.39Q47.81-5.90 47.99-6.39L47.99-6.39L47.99-6.39Q48.16-6.88 48.32-7.58L48.32-7.58L48.32-7.58Q48.48-8.28 48.56-9.02L48.56-9.02L48.56-9.02Q48.65-9.77 48.65-10.63L48.65-10.63L48.65-10.63Q48.63-11.33 48.52-12.19L48.52-12.19L48.52-12.19Q48.40-13.05 48.25-13.60L48.25-13.60L48.25-13.60Q48.11-14.16 47.80-14.62L47.80-14.62L47.80-14.62Q47.50-15.08 47.04-15.35L47.04-15.35L47.04-15.35Q46.58-15.63 45.90-15.66ZM67.75-11.84L67.75-11.84L68.32-9.10L68.32-9.10Q68.79-6.76 68.99-6.89L68.99-6.89L68.99-6.89Q69.20-7.03 69.36-7.36L69.36-7.36L69.36-7.36Q69.51-7.70 69.71-8.42L69.71-8.42L70.21-10.31L70.70-12.95L71.00-14.43L71.35-16.07L71.68-17.38L71.68-17.38Q71.82-17.97 71.86-18.53L71.86-18.53L71.86-18.53Q71.89-19.08 71.93-19.25L71.93-19.25L71.93-19.25Q71.97-19.41 72.12-19.56L72.12-19.56L72.12-19.56Q72.27-19.71 72.81-19.61L72.81-19.61L72.81-19.61Q73.24-19.51 73.85-19.21L73.85-19.21L73.85-19.21Q74.45-18.91 74.64-18.75L74.64-18.75L74.64-18.75Q74.82-18.59 75.19-18.16L75.19-18.16L75.19-18.16Q75.55-17.73 75.57-17.56L75.57-17.56L75.57-17.56Q75.59-17.38 75.39-17.11L75.39-17.11L74.82-16.46L74.82-16.46Q74.53-16.11 74.44-15.88L74.44-15.88L74.44-15.88Q74.36-15.64 74.20-15.11L74.20-15.11L74.20-15.11Q74.04-14.57 73.86-14.06L73.86-14.06L73.86-14.06Q73.67-13.55 73.55-13.17L73.55-13.17L73.55-13.17Q73.44-12.79 73.16-11.66L73.16-11.66L72.56-9.18L71.99-6.72L71.99-6.72Q71.80-5.96 71.66-5.57L71.66-5.57L71.00-3.85L71.00-3.85Q70.86-3.54 70.76-3.20L70.76-3.20L70.43-2.19L70.43-2.19Q70.23-1.62 70.06-1.40L70.06-1.40L70.06-1.40Q69.88-1.17 69.53-0.96L69.53-0.96L69.53-0.96Q69.18-0.74 68.75-0.84L68.75-0.84L68.75-0.84Q68.42-0.90 68.19-1.12L68.19-1.12L68.19-1.12Q67.97-1.35 67.85-1.89L67.85-1.89L67.54-3.09L66.89-5.33L66.37-7.27L66.37-7.27Q65.68-9.73 65.45-10.53L65.45-10.53L65.27-11.09L65.10-11.68L64.26-9.18L63.73-7.23L63.73-7.23Q63.52-6.50 63.22-5.70L63.22-5.70L62.56-3.96L62.30-3.34L62.30-3.34Q62.27-3.26 62.04-2.51L62.04-2.51L62.04-2.51Q61.82-1.76 61.64-1.54L61.64-1.54L61.64-1.54Q61.46-1.33 61.20-1.16L61.20-1.16L61.20-1.16Q60.94-1.00 60.43-0.89L60.43-0.89L60.43-0.89Q59.92-0.78 59.39-1.43L59.39-1.43L59.39-1.43Q59.30-1.52 58.98-2.64L58.98-2.64L58.69-3.77L58.26-5.57L57.85-7.68L57.85-7.68Q57.64-8.69 57.19-10.40L57.19-10.40L57.19-10.40Q56.74-12.11 56.46-13.21L56.46-13.21L56.46-13.21Q56.19-14.32 56.09-14.71L56.09-14.71L55.82-15.66L55.82-15.66Q55.59-16.48 55.51-16.72L55.51-16.72L55-17.70L55-17.70Q54.84-17.97 54.75-18.30L54.75-18.30L54.75-18.30Q54.65-18.63 54.65-18.96L54.65-18.96L54.65-18.96Q54.65-19.22 54.77-19.38L54.77-19.38L54.77-19.38Q54.88-19.53 55.14-19.61L55.14-19.61L55.14-19.61Q55.39-19.69 55.78-19.67L55.78-19.67L56.46-19.59L56.46-19.59Q57.68-19.47 57.97-19.36L57.97-19.36L57.97-19.36Q58.26-19.24 58.42-19.02L58.42-19.02L58.42-19.02Q58.57-18.81 58.61-18.67L58.61-18.67L58.61-18.67Q58.61-18.59 58.50-18.08L58.50-18.08L58.50-18.08Q58.38-17.56 58.57-16.62L58.57-16.62L58.81-15.35L59.12-14.16L59.65-11.21L60.33-8.38L60.33-8.38Q60.74-6.60 60.88-6.69L60.88-6.69L60.88-6.69Q61.02-6.78 61.17-7.08L61.17-7.08L61.17-7.08Q61.33-7.38 61.48-7.93L61.48-7.93L62.13-10.20L62.95-13.09L63.36-14.88L63.36-14.88Q63.59-15.86 63.75-16.71L63.75-16.71L63.75-16.71Q63.91-17.56 64.13-17.99L64.13-17.99L64.13-17.99Q64.36-18.42 64.58-18.53L64.58-18.53L64.58-18.53Q64.80-18.63 65.04-18.65L65.04-18.65L65.04-18.65Q65.27-18.67 65.57-18.55L65.57-18.55L65.57-18.55Q65.86-18.44 66.11-18.13L66.11-18.13L66.11-18.13Q66.37-17.81 66.51-17.36L66.51-17.36L66.51-17.36Q66.66-16.91 67.02-15.58L67.02-15.58L67.02-15.58Q67.38-14.24 67.40-14.12L67.40-14.12L67.75-11.84ZM100.20-11.72L100.20-11.72L100.04-7.38L100.04-7.38Q100.10-5.76 100.12-4.88L100.12-4.88L100.12-4.88Q100.14-4.00 100.21-3.36L100.21-3.36L100.21-3.36Q100.29-2.71 100.25-2.46L100.25-2.46L100.25-2.46Q100.18-2.11 99.94-1.82L99.94-1.82L99.94-1.82Q99.71-1.52 99.22-1.23L99.22-1.23L99.22-1.23Q98.73-0.94 97.62-1.05L97.62-1.05L97.62-1.05Q97.34-1.07 97.21-1.15L97.21-1.15L97.21-1.15Q97.07-1.23 96.84-1.57L96.84-1.57L96.84-1.57Q96.60-1.91 96.64-2.60L96.64-2.60L96.76-5.10L96.88-9.45L96.88-9.45Q96.86-11.97 96.97-13.24L96.97-13.24L96.97-13.24Q97.09-14.51 96.91-14.96L96.91-14.96L96.91-14.96Q96.74-15.35 96.20-15.81L96.20-15.81L96.20-15.81Q95.66-16.27 94.94-16.43L94.94-16.43L94.94-16.43Q94.22-16.58 93.22-15.53L93.22-15.53L93.22-15.53Q92.85-15.16 92.62-14.69L92.62-14.69L92.62-14.69Q92.38-14.22 92.34-14.02L92.34-14.02L92.23-12.89L91.88-11.78L91.86-10.82L91.72-8.46L91.72-8.46Q91.66-7.38 91.63-6.78L91.63-6.78L91.63-6.78Q91.60-6.17 91.62-5.70L91.62-5.70L91.62-5.70Q91.62-5.43 91.64-5.27L91.64-5.27L91.80-4.34L91.80-4.34Q91.82-4.20 91.88-3.37L91.88-3.37L91.88-3.37Q91.95-2.54 91.95-2.36L91.95-2.36L91.95-2.36Q91.93-2.01 91.82-1.79L91.82-1.79L91.82-1.79Q91.70-1.56 91.03-1.19L91.03-1.19L91.03-1.19Q90.35-0.82 89.51-0.92L89.51-0.92L89.51-0.92Q89.28-0.94 89.12-1.02L89.12-1.02L89.12-1.02Q88.96-1.09 88.73-1.43L88.73-1.43L88.73-1.43Q88.50-1.76 88.54-2.46L88.54-2.46L88.63-4.96L88.77-9.32L88.77-9.32Q88.61-10.49 88.56-10.89L88.56-10.89L88.56-10.89Q88.52-11.29 88.52-11.41L88.52-11.41L88.36-13.65L88.36-13.65Q88.22-14.49 87.78-15.23L87.78-15.23L87.78-15.23Q87.34-15.98 86.79-16.07L86.79-16.07L86.79-16.07Q86.23-16.17 85.53-15.69L85.53-15.69L85.53-15.69Q84.82-15.21 84.50-14.68L84.50-14.68L84.50-14.68Q84.18-14.14 84.07-13.55L84.07-13.55L84.07-13.55Q83.96-12.97 83.87-11.70L83.87-11.70L83.87-11.70Q83.77-10.43 83.71-9.79L83.71-9.79L83.54-8.13L83.54-8.13Q83.46-7.23 83.44-6.69L83.44-6.69L83.44-6.69Q83.42-6.15 83.44-5.64L83.44-5.64L83.44-5.64Q83.44-5.37 83.45-5.25L83.45-5.25L83.45-5.25Q83.46-5.14 83.57-4.45L83.57-4.45L83.57-4.45Q83.69-3.77 83.73-3.16L83.73-3.16L83.73-3.16Q83.77-2.56 83.77-2.30L83.77-2.30L83.77-2.30Q83.75-1.93 83.63-1.72L83.63-1.72L83.63-1.72Q83.52-1.50 82.85-1.15L82.85-1.15L82.85-1.15Q82.19-0.80 81.11-0.92L81.11-0.92L81.11-0.92Q80.84-0.94 80.70-1.02L80.70-1.02L80.70-1.02Q80.57-1.09 80.33-1.44L80.33-1.44L80.33-1.44Q80.10-1.78 80.14-2.46L80.14-2.46L80.23-4.96L80.49-8.54L80.57-10.76L80.72-13.32L80.72-13.32Q80.70-14.30 80.51-14.79L80.51-14.79L80.51-14.79Q80.31-15.27 80.13-15.46L80.13-15.46L80.13-15.46Q79.94-15.64 79.84-15.68L79.84-15.68L79.04-15.45L79.04-15.45Q78.67-15.41 78.30-16.10L78.30-16.10L78.30-16.10Q77.93-16.80 77.97-17.30L77.97-17.30L77.97-17.30Q77.99-17.54 78.08-17.67L78.08-17.67L78.08-17.67Q78.16-17.79 78.51-17.95L78.51-17.95L78.51-17.95Q78.85-18.11 79.61-18.67L79.61-18.67L79.61-18.67Q80.37-19.24 80.92-19.36L80.92-19.36L80.92-19.36Q81.50-19.45 81.94-19.24L81.94-19.24L81.94-19.24Q82.38-19.02 82.71-18.63L82.71-18.63L83.42-17.79L83.42-17.79Q83.93-18.28 84.28-18.58L84.28-18.58L84.28-18.58Q84.63-18.89 85.21-19.22L85.21-19.22L85.21-19.22Q85.78-19.55 86.79-19.58L86.79-19.58L86.79-19.58Q87.79-19.61 88.61-18.99L88.61-18.99L88.61-18.99Q89.43-18.38 89.59-18.05L89.59-18.05L90.08-17.09L90.08-17.09Q90.76-17.62 91.38-18.12L91.38-18.12L91.38-18.12Q91.99-18.61 92.56-18.97L92.56-18.97L92.56-18.97Q93.13-19.34 93.77-19.52L93.77-19.52L93.77-19.52Q94.41-19.71 95.06-19.75L95.06-19.75L95.06-19.75Q95.98-19.77 96.61-19.54L96.61-19.54L96.61-19.54Q97.25-19.32 98.06-18.78L98.06-18.78L98.06-18.78Q98.87-18.24 99.22-17.88L99.22-17.88L99.22-17.88Q99.57-17.52 99.90-16.82L99.90-16.82L99.90-16.82Q100.23-16.11 100.35-15.60L100.35-15.60L100.35-15.60Q100.47-15.08 100.41-14.49L100.41-14.49L100.20-11.72ZM109.41-0.80L109.41-0.80L109.41-0.80Q109.16-0.80 108.24-1.05L108.24-1.05L108.24-1.05Q107.32-1.31 106.11-1.85L106.11-1.85L106.11-1.85Q104.90-2.38 104.29-3.08L104.29-3.08L104.29-3.08Q103.67-3.77 103.29-4.84L103.29-4.84L103.29-4.84Q102.91-5.92 102.81-7.27L102.81-7.27L102.81-7.27Q102.71-8.61 102.97-10.80L102.97-10.80L102.97-10.80Q103.11-12.09 103.35-13.01L103.35-13.01L103.35-13.01Q103.59-13.93 104.20-15.17L104.20-15.17L104.20-15.17Q104.80-16.41 105.44-17.15L105.44-17.15L105.44-17.15Q106.07-17.89 107.17-18.48L107.17-18.48L107.17-18.48Q108.26-19.06 108.96-19.21L108.96-19.21L108.96-19.21Q109.65-19.36 110.43-19.36L110.43-19.36L110.43-19.36Q112.29-19.32 113.48-18.74L113.48-18.74L113.48-18.74Q114.67-18.16 115.46-17.35L115.46-17.35L115.46-17.35Q116.25-16.54 116.59-15.71L116.59-15.71L116.59-15.71Q116.93-14.88 117.05-14.16L117.05-14.16L117.05-14.16Q117.17-13.44 117.24-12.58L117.24-12.58L117.24-12.58Q117.30-11.72 117.30-11.09L117.30-11.09L117.30-11.09Q117.29-10.59 117.22-10.18L117.22-10.18L117.22-10.18Q117.15-9.77 116.97-9.59L116.97-9.59L116.97-9.59Q116.80-9.41 116.33-9.31L116.33-9.31L116.33-9.31Q115.86-9.20 115.20-9.12L115.20-9.12L115.20-9.12Q114.53-9.04 113.04-8.95L113.04-8.95L113.04-8.95Q111.54-8.85 110.69-8.78L110.69-8.78L110.69-8.78Q109.84-8.71 108.87-8.60L108.87-8.60L108.87-8.60Q107.89-8.50 107.18-8.48L107.18-8.48L107.18-8.48Q106.46-8.46 106.31-8.26L106.31-8.26L106.31-8.26Q106.15-8.07 106.27-7.21L106.27-7.21L106.27-7.21Q106.37-6.37 106.48-6.06L106.48-6.06L106.48-6.06Q106.60-5.76 107.01-5.34L107.01-5.34L107.01-5.34Q107.42-4.92 108.09-4.60L108.09-4.60L108.09-4.60Q108.75-4.28 110.06-4.22L110.06-4.22L110.06-4.22Q111.11-4.14 112.07-4.30L112.07-4.30L112.07-4.30Q113.03-4.45 113.52-4.84L113.52-4.84L113.52-4.84Q114.00-5.23 114.34-6.02L114.34-6.02L114.34-6.02Q114.67-6.80 114.81-6.90L114.81-6.90L114.81-6.90Q114.96-7.01 115.32-7.12L115.32-7.12L115.32-7.12Q115.68-7.23 116.02-7.27L116.02-7.27L116.02-7.27Q116.50-7.29 116.88-7.15L116.88-7.15L116.88-7.15Q117.27-7.01 117.52-6.72L117.52-6.72L117.52-6.72Q117.77-6.43 117.81-6.06L117.81-6.06L117.81-6.06Q117.85-5.70 117.70-5.18L117.70-5.18L117.70-5.18Q117.44-4.41 117.02-3.64L117.02-3.64L117.02-3.64Q116.60-2.87 115.95-2.36L115.95-2.36L115.95-2.36Q115.29-1.86 114.16-1.46L114.16-1.46L114.16-1.46Q113.03-1.07 112.52-0.99L112.52-0.99L112.52-0.99Q112.01-0.90 110.66-0.86L110.66-0.86L109.41-0.80ZM106.46-11.62L106.46-11.62L106.46-11.62Q106.48-11.58 107.29-11.53L107.29-11.53L107.29-11.53Q108.09-11.48 109.53-11.64L109.53-11.64L109.53-11.64Q110.98-11.80 111.72-11.86L111.72-11.86L111.72-11.86Q112.46-11.91 112.92-12.08L112.92-12.08L112.92-12.08Q113.38-12.25 113.62-12.59L113.62-12.59L113.62-12.59Q113.87-12.93 113.87-13.40L113.87-13.40L113.87-13.40Q113.85-13.95 113.42-14.59L113.42-14.59L113.42-14.59Q112.99-15.23 112.27-15.60L112.27-15.60L112.27-15.60Q111.54-15.96 110.57-15.92L110.57-15.92L110.57-15.92Q109.20-15.84 108.50-15.26L108.50-15.26L108.50-15.26Q107.79-14.69 107.22-13.86L107.22-13.86L107.22-13.86Q106.64-13.03 106.49-12.38L106.49-12.38L106.49-12.38Q106.35-11.74 106.46-11.62Z"></path></g> <!----> <!----> <!----> <!----> <!----> <!----> <!----></g> <g class="tp-slogan" transform="translate(5.7936553955078125,33.233760833740234)"><!----> <!----> <!----> <g><path transform="translate(-0.56098790322581,8.8125)" d="M7.31-3.61L4.69-3.61L4.69-4.59L8.44-4.59L8.44 0L7.69 0L7.41-1.08L7.41-1.08Q6.42 0.09 4.59 0.14L4.59 0.14L4.59 0.14Q2.86 0.14 1.92-0.75L1.92-0.75L1.92-0.75Q0.52-2.06 0.56-4.36L0.56-4.36L0.56-4.36Q0.89-8.63 4.64-8.81L4.64-8.81L4.64-8.81Q7.83-8.63 8.30-6L8.30-6L7.17-6L7.17-6Q6.70-7.78 4.59-7.83L4.59-7.83L4.59-7.83Q1.92-7.64 1.78-4.31L1.78-4.31L1.78-4.31Q1.78-0.75 4.64-0.75L4.64-0.75L4.64-0.75Q5.67-0.75 6.42-1.31L6.42-1.31L6.42-1.31Q7.36-2.06 7.31-3.61L7.31-3.61ZM11.53-1.03L16.69-1.03L16.69 0L10.36 0L10.36-8.58L16.59-8.58L16.59-7.59L11.53-7.59L11.53-4.92L16.22-4.92L16.22-3.89L11.53-3.89L11.53-1.03ZM20.39-7.59L17.48-7.59L17.48-8.58L24.42-8.58L24.42-7.59L21.52-7.59L21.52 0L20.39 0L20.39-7.59ZM30.98-7.59L28.08-7.59L28.08-8.58L35.02-8.58L35.02-7.59L32.11-7.59L32.11 0L30.98 0L30.98-7.59ZM42.84-4.27L42.84-4.27L42.84-4.27Q42.66-7.64 39.84-7.83L39.84-7.83L39.84-7.83Q36.98-7.69 36.84-4.27L36.84-4.27L36.84-4.27Q36.98-0.94 39.84-0.80L39.84-0.80L39.84-0.80Q42.66-0.98 42.84-4.27ZM44.02-4.27L44.02-4.27L44.02-4.27Q43.73 0 39.84 0.14L39.84 0.14L39.84 0.14Q35.91 0 35.63-4.27L35.63-4.27L35.63-4.27Q35.86-8.72 39.84-8.81L39.84-8.81L39.84-8.81Q43.73-8.67 44.02-4.27ZM51.23-4.31L49.88-3.05L49.88 0L48.70 0L48.70-8.58L49.88-8.58L49.88-4.41L54.05-8.58L55.69-8.58L52.08-5.11L55.78 0L54.23 0L51.23-4.31ZM58.08-8.58L62.39-1.64L62.39-8.58L63.52-8.58L63.52 0L62.20 0L57.84-6.94L57.80-6.94L57.80 0L56.67 0L56.67-8.58L58.08-8.58ZM72.09-4.27L72.09-4.27L72.09-4.27Q71.91-7.64 69.09-7.83L69.09-7.83L69.09-7.83Q66.23-7.69 66.09-4.27L66.09-4.27L66.09-4.27Q66.23-0.94 69.09-0.80L69.09-0.80L69.09-0.80Q71.91-0.98 72.09-4.27ZM73.27-4.27L73.27-4.27L73.27-4.27Q72.98 0 69.09 0.14L69.09 0.14L69.09 0.14Q65.16 0 64.88-4.27L64.88-4.27L64.88-4.27Q65.11-8.72 69.09-8.81L69.09-8.81L69.09-8.81Q72.98-8.67 73.27-4.27ZM79.41-7.13L79.36-7.13L77.39 0L76.17 0L73.92-8.58L75.14-8.58L76.78-1.59L76.83-1.59L78.75-8.58L80.02-8.58L81.94-1.59L81.98-1.59L83.58-8.58L84.84-8.58L82.59 0L81.38 0L79.41-7.13ZM97.50-8.58L97.50 0L96.38 0L96.38-5.06L96.38-5.06Q96.38-5.77 96.38-7.22L96.38-7.22L93.94 0L92.77 0L90.38-7.22L90.33-7.22L90.33-7.22Q90.33-6.70 90.38-5.67L90.38-5.67L90.38-5.67Q90.38-5.16 90.38-5.06L90.38-5.06L90.38 0L89.20 0L89.20-8.58L90.89-8.58L93.38-1.31L95.81-8.58L97.50-8.58ZM100.50-1.03L105.66-1.03L105.66 0L99.33 0L99.33-8.58L105.56-8.58L105.56-7.59L100.50-7.59L100.50-4.92L105.19-4.92L105.19-3.89L100.50-3.89L100.50-1.03Z"></path></g></g></g></g></g></svg>